<?xml version="1.0" encoding="UTF-8"?>
<svg version="1.1" xmlns="http://www.w3.org/2000/svg" width="739" height="739">
<path d="M0 0 C8.75805863 7.66494756 14.96198353 16.9013895 19.0625 27.75 C19.36929687 28.513125 19.67609375 29.27625 19.9921875 30.0625 C25.84086786 46.55020845 23.38423312 65.23489885 16.0625 80.75 C12.29041091 87.60416189 7.6909774 93.67829715 2.6640625 99.65625 C0.2921022 102.7571542 -0.06278105 105.2859885 -0.06892776 109.06919575 C-0.07276891 109.95625118 -0.07661005 110.8433066 -0.0805676 111.7572425 C-0.07926787 113.22044694 -0.07926787 113.22044694 -0.07794189 114.71321106 C-0.08091302 115.74876324 -0.08388414 116.78431542 -0.0869453 117.85124797 C-0.0956506 121.33809592 -0.09714209 124.82490961 -0.09863281 128.31176758 C-0.10325967 130.80490696 -0.10828415 133.29804563 -0.11367798 135.79118347 C-0.12681622 142.57631758 -0.13328619 149.36143822 -0.13768864 156.14658189 C-0.1404508 160.38279931 -0.1446881 164.61901445 -0.14919281 168.85523033 C-0.16138556 180.5828134 -0.17168491 192.31039463 -0.1750679 204.03798389 C-0.17528747 204.78864242 -0.17550703 205.53930094 -0.17573325 206.31270669 C-0.17595153 207.06516642 -0.17616981 207.81762616 -0.1763947 208.5928877 C-0.17683817 210.11767058 -0.17728473 211.64245345 -0.17773438 213.16723633 C-0.1779558 213.92358211 -0.17817723 214.6799279 -0.17840537 215.45919325 C-0.18235364 227.71551077 -0.19980848 239.97176883 -0.2230939 252.22806338 C-0.24680469 264.80974777 -0.25926962 277.39140233 -0.26043582 289.97310942 C-0.26135273 297.03795622 -0.26710893 304.10272557 -0.28525543 311.16755104 C-0.3022615 317.81182205 -0.30391107 324.45597191 -0.29511642 331.10026741 C-0.29434392 333.54077803 -0.29871675 335.98129643 -0.30857468 338.42178726 C-0.32123134 341.74998098 -0.31545123 345.07764836 -0.30499268 348.40583801 C-0.31304908 349.37461547 -0.32110548 350.34339293 -0.32940602 351.34152728 C-0.27494053 358.73775788 1.4207548 363.40149412 6.75 368.6875 C16.58757071 379.45074618 21.89888951 393.3212299 23.0625 407.75 C23.11535156 408.38679688 23.16820312 409.02359375 23.22265625 409.6796875 C24.02181696 428.09512994 16.76387373 444.41025386 5.00390625 458.15625 C-6.98566481 471.00379036 -22.60441734 477.55143577 -39.9375 478.75 C-59.87353256 478.93768231 -76.43448272 472.30380915 -90.9375 458.75 C-103.15134888 446.2571001 -108.7969476 429.60818715 -109.375 412.375 C-108.93271822 393.85685403 -101.57272633 378.94769546 -89.625 365.0625 C-86.10242583 360.23526872 -85.687048 355.39067324 -85.68353271 349.54579163 C-85.68041273 348.84323303 -85.67729275 348.14067444 -85.67407823 347.41682619 C-85.66613372 345.07475385 -85.67240792 342.73294317 -85.67871094 340.39086914 C-85.67599947 338.70678049 -85.67243767 337.02269302 -85.66809082 335.33860779 C-85.65898236 330.77249336 -85.66250491 326.20646943 -85.66884899 321.64035344 C-85.67391779 316.85768089 -85.66921501 312.075016 -85.66607666 307.29234314 C-85.66243923 299.26006685 -85.6672299 291.22782735 -85.67675781 283.19555664 C-85.68763822 273.91608449 -85.68411888 264.63670026 -85.673105 255.35723025 C-85.66402135 247.38423444 -85.66275224 239.41126505 -85.66798234 231.43826574 C-85.67109658 226.67896836 -85.67152644 221.91971227 -85.66490936 217.16041756 C-85.659121 212.68458389 -85.66316008 208.20886325 -85.67469788 203.73304176 C-85.67733665 202.09278297 -85.67659277 200.45251463 -85.67217255 198.81225967 C-85.66668454 196.56844314 -85.67359036 194.32498584 -85.68353271 192.08119202 C-85.68428677 190.82705033 -85.68504082 189.57290865 -85.68581772 188.28076267 C-86.03829512 183.33598048 -86.70265152 179.17194673 -90 175.375 C-93.84352914 173.24879239 -97.53525509 172.33540502 -101.9375 172.75 C-105.84062503 174.80204116 -108.80988146 177.32723792 -111.97143555 180.38232422 C-112.44687805 180.83980545 -112.92232056 181.29728668 -113.41217041 181.76863098 C-114.97237168 183.27442439 -116.52437783 184.7882356 -118.07421875 186.3046875 C-118.87448958 187.08711508 -118.87448958 187.08711508 -119.69092751 187.88534927 C-122.51396437 190.6492312 -125.32931819 193.42071563 -128.13989258 196.19726562 C-130.45394619 198.48021069 -132.78269458 200.74635004 -135.1262207 202.99902344 C-137.97091458 205.73354985 -140.78702829 208.49472622 -143.58551979 211.27649307 C-144.64902132 212.32483356 -145.72180766 213.36384963 -146.80426598 214.39260483 C-154.31116279 221.54720833 -157.50443622 227.20960112 -157.9375 237.75 C-160.30833438 256.50526051 -168.72401218 272.70984254 -183.6875 284.5625 C-199.63188521 295.81617593 -217.34886177 299.83188683 -236.5625 296.75 C-253.93479121 293.52062802 -268.79693093 283.25380614 -278.93359375 268.91015625 C-289.71503838 251.90783908 -292.14662315 233.7386568 -287.8359375 214.28125 C-283.36789467 196.71989904 -272.11143377 183.0983893 -256.734375 173.83203125 C-247.06843672 168.33236021 -237.06993655 166.18726268 -226.10253906 165.55688477 C-225.38678711 165.50588623 -224.67103516 165.4548877 -223.93359375 165.40234375 C-223.30638428 165.37132568 -222.6791748 165.34030762 -222.03295898 165.30834961 C-214.61819041 163.33263299 -209.1164105 156.21032241 -203.92480469 150.99609375 C-202.92266421 149.99666637 -201.92009942 148.9976643 -200.91714478 147.99905396 C-198.20615864 145.2971538 -195.50149876 142.58900397 -192.79823208 139.87938309 C-189.96478064 137.04085481 -187.12643762 134.2072245 -184.28887939 131.37280273 C-179.527525 126.61508188 -174.77039202 121.8531707 -170.015625 117.08886719 C-164.51957507 111.58192138 -159.01634043 106.08223434 -153.50934291 100.58623791 C-148.77688028 95.86285064 -144.04832551 91.13557781 -139.32301641 86.40503407 C-136.50259283 83.58149379 -133.68083845 80.75931914 -130.85555267 77.94064331 C-128.20146504 75.29233255 -125.55231696 72.63917785 -122.90690231 69.98220444 C-121.93549649 69.00815441 -120.96238524 68.03580178 -119.98745346 67.06528091 C-118.65699379 65.74028697 -117.33329298 64.40851657 -116.00994873 63.07641602 C-115.26740215 62.33311539 -114.52485558 61.58981476 -113.75980759 60.82398987 C-109.83948151 56.36222028 -109.57341147 52.19423189 -109.125 46.4375 C-107.28613647 27.43591023 -99.35938864 11.20180614 -84.59765625 -1.21875 C-58.49737417 -20.50842363 -25.39365341 -19.47909257 0 0 Z M-84.984375 19.16796875 C-89.27714851 24.93752972 -91.8949786 30.87570756 -93.9375 37.75 C-94.12957031 38.39066406 -94.32164062 39.03132813 -94.51953125 39.69140625 C-95.06930414 42.3991662 -95.13263751 45.05280484 -95.25 47.8125 C-95.94275961 56.78825496 -97.77719794 63.74812646 -103.9822998 70.45951843 C-104.78630722 71.32952169 -105.59031464 72.19952496 -106.41868591 73.09589195 C-110.46329182 77.35774722 -114.57261771 81.54915803 -118.72070312 85.71020508 C-119.66325653 86.65904589 -120.60562872 87.60806675 -121.5478363 88.55725098 C-124.60132681 91.63148352 -127.65987812 94.70065473 -130.71875 97.76953125 C-131.78006462 98.83490221 -132.84134877 99.90030352 -133.90260315 100.96573448 C-138.88433129 105.96643475 -143.8684134 110.96477396 -148.85544348 115.96018678 C-154.58471023 121.69924881 -160.30557237 127.44652368 -166.01955652 133.20080072 C-170.45948898 137.67095214 -174.90712655 142.13334349 -179.36053991 146.59006423 C-182.01098122 149.24284573 -184.65807479 151.89876813 -187.29701233 154.56299782 C-190.23837662 157.53210758 -193.19555601 160.48497328 -196.15429688 163.43676758 C-197.01482162 164.31010239 -197.87534637 165.18343719 -198.76194763 166.08323669 C-206.2937223 173.55088286 -212.96767491 178.24991263 -223.6875 178.8125 C-239.83153501 180.18273186 -252.66528563 185.44243639 -263.9375 197.37890625 C-273.78244651 209.05055182 -277.26398859 222.70371728 -276.16503906 237.71923828 C-274.68540668 250.92479856 -267.56183116 262.80718452 -257.9375 271.75 C-245.11169675 281.47991971 -231.91202188 285.13859534 -215.9375 283.75 C-202.59817341 281.20710005 -190.21789654 274.02870453 -181.9609375 263.14453125 C-180.14495705 260.40510542 -178.5059161 257.63768277 -176.9375 254.75 C-176.525 253.99332031 -176.1125 253.23664063 -175.6875 252.45703125 C-173.12615759 246.98592853 -172.45755458 241.62967757 -171.875 235.6875 C-170.11533174 217.78232784 -161.19339442 209.87107976 -148.71484375 197.2890625 C-148.24764986 196.81779308 -147.78045597 196.34652367 -147.29910469 195.86097336 C-144.83534337 193.37660238 -142.36849964 190.89533966 -139.89916992 188.41650391 C-137.37035955 185.8765525 -134.8534733 183.32510656 -132.33890438 180.77106667 C-130.38005939 178.78598406 -128.41229095 176.80992782 -126.44207954 174.83613205 C-125.06203922 173.44893782 -123.6916422 172.05217102 -122.32151794 170.65518188 C-115.45789797 163.81515047 -109.37609225 159.31485871 -99.4453125 158.72265625 C-91.4096454 158.81027256 -84.86544178 161.25957635 -78.9375 166.75 C-72.0451676 176.21792963 -72.0754766 185.64887325 -72.16113281 196.8125 C-72.15298717 198.60759757 -72.14229546 200.4026851 -72.12927246 202.19775391 C-72.10208103 207.04092326 -72.11245693 211.8833198 -72.13154697 216.72650146 C-72.14682148 221.81378135 -72.13262653 226.90099855 -72.12322998 231.98828125 C-72.11233833 240.5287657 -72.1266359 249.06893803 -72.15527344 257.609375 C-72.18792249 267.45940669 -72.17734377 277.30869302 -72.144315 287.15870667 C-72.11701779 295.64150842 -72.11327867 304.12408682 -72.12894702 312.60691833 C-72.13826327 317.66206058 -72.13965352 322.71685338 -72.11972809 327.77197266 C-72.10229403 332.5264546 -72.11460119 337.27998301 -72.14909363 342.03436279 C-72.15697344 343.77087833 -72.15484131 345.50747522 -72.14151764 347.24395752 C-72.04230274 361.49743547 -74.93702336 370.80505243 -84.9765625 381.40234375 C-94.23490383 392.48653327 -95.83289645 405.74247848 -95.13720703 419.58349609 C-94.66895158 424.66332361 -93.04335724 429.14343728 -90.9375 433.75 C-90.586875 434.53503906 -90.23625 435.32007813 -89.875 436.12890625 C-83.09136673 449.6726185 -71.53155282 458.18786247 -57.4453125 463.0234375 C-42.81549097 467.26198392 -29.00792737 464.43059694 -15.79296875 457.47265625 C-2.65290443 449.54547654 4.99246243 437.0105959 8.67578125 422.30078125 C10.79339388 408.33309388 8.25622393 394.42999589 0.0625 382.75 C-2.44809081 379.68820576 -4.99775652 376.69761503 -7.6328125 373.7421875 C-12.87166315 366.94056106 -13.37635891 361.29582689 -13.33190918 352.95304871 C-13.33800028 351.87606557 -13.34409139 350.79908243 -13.35036707 349.68946344 C-13.36699599 346.08608086 -13.36222124 342.4830517 -13.35742188 338.87963867 C-13.36476227 336.29387546 -13.37334841 333.70811552 -13.38308716 331.12236023 C-13.40411473 324.83068888 -13.40868353 318.53910974 -13.40689927 312.2474074 C-13.4055902 307.13132514 -13.40940317 302.01527158 -13.41682434 296.89919472 C-13.41892361 295.42392439 -13.42102121 293.94865406 -13.42311716 292.47338372 C-13.42468245 291.37185298 -13.42468245 291.37185298 -13.42627937 290.24806909 C-13.44517123 276.36727226 -13.44413489 262.48652831 -13.43731004 248.60572395 C-13.43173633 235.91905011 -13.45255447 223.23257832 -13.48567051 210.54595169 C-13.51943951 197.50758132 -13.53457179 184.46930766 -13.52995348 171.43089277 C-13.5277119 164.11554292 -13.53290606 156.80037977 -13.55784607 149.48506737 C-13.5811057 142.60423993 -13.57823745 135.72383918 -13.55791855 128.84300423 C-13.55450789 126.32031808 -13.55959986 123.79760366 -13.57390213 121.27495575 C-13.59210684 117.82544905 -13.57933415 114.37736646 -13.55895996 110.92790222 C-13.57147781 109.93459512 -13.58399566 108.94128803 -13.59689283 107.91788071 C-13.49531343 99.8708373 -11.03006866 93.55810415 -5.9453125 87.296875 C-5.32398438 86.70390625 -4.70265625 86.1109375 -4.0625 85.5 C5.95555263 74.81787191 9.54979545 61.86434176 9.30859375 47.5625 C8.36033087 32.87195123 1.83785236 20.67823347 -8.9375 10.75 C-33.56511951 -8.04476226 -64.96692772 -4.47859589 -84.984375 19.16796875 Z " fill="#FEFEFE" transform="translate(593.9375,39.25)"/>
<path d="M0 0 C13.25227083 11.28350265 21.21407024 26.18203421 22.89453125 43.5546875 C24.15243415 61.0582726 18.20511907 77.32663255 7.0546875 90.7734375 C-3.90819893 102.43131264 -19.18662735 109.55529835 -35.10546875 110.5546875 C-53.8993407 110.70443947 -69.86634554 105.27722799 -83.59765625 92.19140625 C-96.14045678 79.00388233 -100.92478854 63.46009618 -101.10546875 45.5546875 C-100.03428595 28.2769056 -92.39821143 13.51874722 -80.10546875 1.5546875 C-57.09248127 -17.51431044 -23.71534102 -18.67396664 0 0 Z " fill="#FEFEFE" transform="translate(228.10546875,41.4453125)"/>
<path d="M0 0 C12.7546034 10.92550809 21.9261098 25.40061292 23.67578125 42.37890625 C25.06792536 60.54307222 20.02232111 77.50981334 8.21484375 91.45703125 C-3.34704997 103.24980764 -18.13450481 110.48319645 -34.71142578 110.81225586 C-53.08305149 110.93813149 -68.22979689 106.83766919 -82 93.8671875 C-94.61602261 80.15610326 -100.80153402 63.68082998 -100.03515625 45.01953125 C-98.46116983 27.43430362 -90.92633055 13.44941873 -78.16015625 1.51953125 C-55.92667708 -15.85434462 -22.58261515 -18.31601284 0 0 Z " fill="#FEFEFE" transform="translate(227.16015625,402.48046875)"/>
<path d="M0 0 C1.59506846 -0.00389578 3.19013589 -0.00823224 4.78520203 -0.01298523 C8.11782198 -0.02041543 11.45033594 -0.02017993 14.78295898 -0.01489258 C19.02244202 -0.00910814 23.26148671 -0.0260196 27.50089741 -0.04923725 C30.79290745 -0.06407717 34.08481446 -0.06483236 37.37685204 -0.06172752 C38.93832452 -0.06223579 40.49980354 -0.06737903 42.06124306 -0.07753944 C55.9330884 -0.15672947 68.11984424 1.49875953 79.76171875 9.48828125 C90.36348594 20.09004844 91.72632449 35.05442797 91.7421875 49.28125 C91.7455159 50.33049149 91.7488443 51.37973297 91.75227356 52.46076965 C91.75732099 54.67542078 91.75968256 56.89007946 91.75952148 59.10473633 C91.76170034 62.4599287 91.77985865 65.81478789 91.79882812 69.16992188 C91.80176418 71.33203014 91.80374756 73.49413995 91.8046875 75.65625 C91.81187302 76.64417038 91.81905853 77.63209076 91.82646179 78.64994812 C91.78212077 92.44987557 89.58262927 106.07667223 79.57421875 116.30078125 C66.79976811 126.38347265 50.28026948 126.45189774 34.72265625 126.46875 C33.07518906 126.4737426 33.07518906 126.4737426 31.3944397 126.47883606 C29.08343927 126.48386732 26.77243168 126.48624557 24.46142578 126.48608398 C20.97936628 126.48826239 17.49762833 126.50643726 14.015625 126.52539062 C-27.73848672 126.63365797 -27.73848672 126.63365797 -40.8125 114.046875 C-47.7900144 106.49494052 -50.51652025 96.73436049 -50.58691406 86.59936523 C-50.59652161 85.47727158 -50.60612915 84.35517792 -50.61602783 83.19908142 C-50.62027771 81.9938533 -50.62452759 80.78862518 -50.62890625 79.546875 C-50.63460632 78.29503922 -50.6403064 77.04320343 -50.6461792 75.75343323 C-50.65562114 73.10308201 -50.66252155 70.45284375 -50.66601562 67.80249023 C-50.67038992 65.1054117 -50.68424421 62.40865494 -50.70703125 59.71166992 C-50.73770101 55.80247404 -50.74808774 51.89367825 -50.75390625 47.984375 C-50.76625305 46.7933165 -50.77859985 45.602258 -50.7913208 44.37510681 C-50.76209067 33.2312183 -49.29992809 20.73043091 -41.484375 12.17578125 C-29.4700549 0.80918972 -15.82868265 -0.01618973 0 0 Z M-19.42578125 30.67578125 C-25.28807307 39.06986635 -23.73303603 53.09609646 -23.67578125 62.80078125 C-23.68351563 64.11175781 -23.69125 65.42273438 -23.69921875 66.7734375 C-24.1716982 81.47772041 -24.1716982 81.47772041 -19.36328125 94.92578125 C-12.13009182 100.77389186 -3.78939678 100.74742563 5.16796875 100.69921875 C6.35467163 100.70208893 7.54137451 100.70495911 8.76403809 100.70791626 C11.26180501 100.70994893 13.75958815 100.70447515 16.25732422 100.69189453 C20.06253942 100.67583056 23.86669252 100.69177153 27.671875 100.7109375 C30.10807524 100.70895493 32.54427483 100.70511097 34.98046875 100.69921875 C36.67302795 100.70832779 36.67302795 100.70832779 38.39978027 100.71762085 C46.27414556 100.64812026 53.12494768 99.94277611 59.51171875 95.05078125 C63.99891226 89.06785657 63.88230238 82.50422242 63.875 75.30859375 C63.88142769 73.89052933 63.88142769 73.89052933 63.88798523 72.44381714 C63.89370555 70.45197344 63.89424581 68.46010887 63.88989258 66.46826172 C63.88673568 63.44201535 63.91021027 60.41675058 63.93554688 57.390625 C63.93782061 55.4466158 63.93852302 53.50260401 63.9375 51.55859375 C63.94670975 50.66455841 63.95591949 49.77052307 63.96540833 48.84939575 C63.91580828 42.01998737 62.86959501 35.65556194 58.94921875 29.92578125 C51.72200788 24.98084749 43.72024376 24.85563915 35.234375 24.90234375 C33.49117226 24.89803848 33.49117226 24.89803848 31.7127533 24.89364624 C29.26626088 24.89161372 26.81975192 24.89708645 24.37329102 24.90966797 C20.65148149 24.92571759 16.93076026 24.90979801 13.20898438 24.890625 C10.82161221 24.89260786 8.43424072 24.89645241 6.046875 24.90234375 C4.39486839 24.89323471 4.39486839 24.89323471 2.70948792 24.88394165 C-5.29705309 24.95595968 -12.97742785 25.57083481 -19.42578125 30.67578125 Z " fill="#FEFEFE" transform="translate(643.42578125,595.69921875)"/>
<path d="M0 0 C1.59506846 -0.00389578 3.19013589 -0.00823224 4.78520203 -0.01298523 C8.11782198 -0.02041543 11.45033594 -0.02017993 14.78295898 -0.01489258 C19.02244202 -0.00910814 23.26148671 -0.0260196 27.50089741 -0.04923725 C30.79290745 -0.06407717 34.08481446 -0.06483236 37.37685204 -0.06172752 C38.93832452 -0.06223579 40.49980354 -0.06737903 42.06124306 -0.07753944 C55.74848872 -0.15567564 67.424563 1.63670864 79.19921875 8.92578125 C90.26426207 19.99082457 91.71001846 34.96369054 91.77734375 49.80078125 C91.78304382 50.794729 91.7887439 51.78867676 91.7946167 52.81274414 C91.80402336 54.9104711 91.81058334 57.00821255 91.81445312 59.10595703 C91.82410516 62.26361986 91.85514859 65.42061596 91.88671875 68.578125 C92.06947039 103.52154662 92.06947039 103.52154662 79.57421875 116.30078125 C63.95335229 128.35899396 42.2541822 126.62903777 23.60205078 126.56152344 C20.08087954 126.55080153 16.56021833 126.56147337 13.0390625 126.57421875 C-27.88497288 126.60216444 -27.88497288 126.60216444 -40.74609375 114.16796875 C-49.85429364 104.04303957 -50.89114834 91.77014095 -50.82421875 78.609375 C-50.82708893 77.34287613 -50.82995911 76.07637726 -50.83291626 74.77149963 C-50.83494525 72.1114227 -50.83104254 69.45219077 -50.81689453 66.79223633 C-50.79978697 63.41471555 -50.8096792 60.03790952 -50.82761192 56.6604147 C-50.84117043 53.3933773 -50.83162823 50.12642178 -50.82421875 46.859375 C-50.83029144 45.66324081 -50.83636414 44.46710663 -50.84262085 43.23472595 C-50.74483817 31.42962841 -48.48049175 19.62164136 -40.36328125 10.61328125 C-29.25379641 0.19367876 -14.30714381 -0.01463349 0 0 Z M-19.42578125 30.80078125 C-25.00984694 38.87694962 -23.7382241 51.08040213 -23.68652344 60.47998047 C-23.67579961 62.79681564 -23.68647555 65.11287571 -23.69921875 67.4296875 C-24.18857363 81.766698 -24.18857363 81.766698 -19.36328125 94.80078125 C-12.2532574 100.85186537 -3.7901089 100.74742946 5.16796875 100.69921875 C6.35467163 100.70208893 7.54137451 100.70495911 8.76403809 100.70791626 C11.26180501 100.70994893 13.75958815 100.70447515 16.25732422 100.69189453 C20.06253942 100.67583056 23.86669252 100.69177153 27.671875 100.7109375 C30.10807524 100.70895493 32.54427483 100.70511097 34.98046875 100.69921875 C36.67302795 100.70832779 36.67302795 100.70832779 38.39978027 100.71762085 C45.85854557 100.65178842 52.66147549 99.97792138 58.94921875 95.67578125 C63.38654588 89.19045698 64.02635065 81.98815851 63.97265625 74.33203125 C63.97552643 73.41168091 63.97839661 72.49133057 63.98135376 71.54309082 C63.98338206 69.61026387 63.97793927 67.67741581 63.96533203 65.74462891 C63.94926071 62.80844647 63.96522306 59.8736403 63.984375 56.9375 C63.98239235 55.04817409 63.97854822 53.15884902 63.97265625 51.26953125 C63.97872894 50.4036438 63.98480164 49.53775635 63.99105835 48.64562988 C63.9206814 42.45995294 63.30103271 35.70954349 59.29940796 30.70715332 C52.4786036 24.49351753 44.07818252 24.99292232 35.4296875 25 C33.68223991 24.99357231 33.68223991 24.99357231 31.89949036 24.98701477 C29.4410568 24.98128636 26.98260631 24.9807602 24.52416992 24.98510742 C20.78469554 24.98826187 17.04601704 24.96480733 13.30664062 24.93945312 C10.91015724 24.93717928 8.51367175 24.93647703 6.1171875 24.9375 C5.00957565 24.92829025 3.90196381 24.91908051 2.76078796 24.90959167 C-5.29053693 24.95700269 -13.0537291 25.49073779 -19.42578125 30.80078125 Z " fill="#FEFEFE" transform="translate(481.42578125,595.69921875)"/>
<path d="M0 0 C1.58788162 -0.00644302 3.1757621 -0.01317244 4.76364136 -0.02017212 C8.08366644 -0.03209937 11.40358785 -0.03585787 14.72363281 -0.03466797 C18.93602607 -0.0344655 23.14773922 -0.06171266 27.359972 -0.09621239 C30.63924079 -0.11867731 33.91835127 -0.12249952 37.19768906 -0.12144852 C38.74832364 -0.12377727 40.29896449 -0.13244291 41.84952164 -0.14811325 C54.18861579 -0.26110734 68.25675655 0.20232511 78.04296875 8.71484375 C78.58308594 9.24980469 79.12320313 9.78476562 79.6796875 10.3359375 C80.23011719 10.86058594 80.78054688 11.38523437 81.34765625 11.92578125 C93.31570407 24.48484378 92.00885321 43.72013798 91.94042969 59.82861328 C91.92970886 62.8299581 91.94037635 65.83070455 91.953125 68.83203125 C91.9797582 103.60976736 91.9797582 103.60976736 79.6796875 116.3359375 C64.53446299 128.63142632 41.99720519 126.66288209 23.70751953 126.59667969 C20.18634829 126.58595778 16.66568708 126.59662962 13.14453125 126.609375 C-27.91117815 126.63560071 -27.91117815 126.63560071 -41.15625 113.83203125 C-49.75775701 103.91079844 -50.63038893 92.43158962 -50.62109375 79.8515625 C-50.62537888 78.55957947 -50.629664 77.26759644 -50.63407898 75.9364624 C-50.64150611 73.20987832 -50.64127659 70.48342379 -50.63598633 67.75683594 C-50.6302108 64.2963823 -50.64709275 60.83646726 -50.670331 57.37610245 C-50.68878408 54.03456891 -50.68487927 50.6931464 -50.68359375 47.3515625 C-50.6928035 46.1261676 -50.70201324 44.90077271 -50.71150208 43.63824463 C-50.64395723 30.9018101 -48.56550571 20.10236764 -39.69140625 10.58984375 C-28.61918485 0.28831062 -14.29764411 0.01373031 0 0 Z M-20.3203125 32.3359375 C-23.71408324 38.47704647 -23.47799577 45.90521299 -23.48828125 52.76171875 C-23.49160965 53.54935104 -23.49493805 54.33698334 -23.49836731 55.14848328 C-23.50340333 56.80658387 -23.50577667 58.4646945 -23.50561523 60.12280273 C-23.50779722 62.63087047 -23.52597601 65.13849447 -23.54492188 67.64648438 C-24.09446189 81.84265898 -24.09446189 81.84265898 -19.2578125 94.7734375 C-12.20779458 100.92345313 -3.68734129 100.78260025 5.2734375 100.734375 C6.46014038 100.73724518 7.64684326 100.74011536 8.86950684 100.74307251 C11.36727376 100.74510518 13.8650569 100.7396314 16.36279297 100.72705078 C20.16800817 100.71098681 23.97216127 100.72692778 27.77734375 100.74609375 C30.21354399 100.74411118 32.64974358 100.74026722 35.0859375 100.734375 C36.7784967 100.74348404 36.7784967 100.74348404 38.50524902 100.7527771 C46.46411155 100.68253072 53.55968173 100.19041086 59.6171875 94.6484375 C63.67912518 88.12471941 63.98874126 81.41813387 63.98046875 73.9375 C63.98689644 72.62499771 63.98689644 72.62499771 63.99345398 71.28598022 C63.99916465 69.44554505 63.99972179 67.60508731 63.99536133 65.76464844 C63.992204 62.97551276 64.01569233 60.18744228 64.04101562 57.3984375 C64.60293005 43.32967804 64.60293005 43.32967804 59.40454102 30.71728516 C52.70511935 24.44260749 44.01638658 25.03940011 35.46484375 25.0703125 C34.29513535 25.06839905 33.12542694 25.0664856 31.92027283 25.06451416 C29.45343815 25.06315681 26.98659623 25.06682174 24.51977539 25.07519531 C20.7584618 25.08589122 16.99762685 25.07528935 13.23632812 25.0625 C10.83333229 25.06382186 8.43033674 25.06638481 6.02734375 25.0703125 C4.35044212 25.06423981 4.35044212 25.06423981 2.6396637 25.05804443 C-6.44591362 25.11218677 -13.7200785 25.57855507 -20.3203125 32.3359375 Z " fill="#FEFEFE" transform="translate(319.3203125,595.6640625)"/>
<path d="M0 0 C1.1653125 -0.00128906 2.330625 -0.00257813 3.53125 -0.00390625 C4.7584375 -0.00003906 5.985625 0.00382813 7.25 0.0078125 C9.09078125 0.00201172 9.09078125 0.00201172 10.96875 -0.00390625 C12.71671875 -0.00197266 12.71671875 -0.00197266 14.5 0 C15.57765625 0.00112793 16.6553125 0.00225586 17.765625 0.00341797 C20.25 0.1328125 20.25 0.1328125 21.25 1.1328125 C21.34319449 2.6676422 21.367458 4.20673332 21.36352539 5.74438477 C21.36344986 6.72532608 21.36337433 7.7062674 21.36329651 8.7169342 C21.35813522 9.7835881 21.35297394 10.850242 21.34765625 11.94921875 C21.3462413 13.03541 21.34482635 14.12160126 21.34336853 15.2407074 C21.33775048 18.72560325 21.32519492 22.21043592 21.3125 25.6953125 C21.30748733 28.05143137 21.30292402 30.40755124 21.29882812 32.76367188 C21.28777519 38.55340714 21.27101951 44.34310531 21.25 50.1328125 C25.98276874 50.0636959 30.71467408 49.9756153 35.44677734 49.87036133 C37.0547524 49.83721887 38.66284081 49.80915396 40.27099609 49.78637695 C42.59000705 49.75263283 44.90798931 49.70031056 47.2265625 49.64453125 C47.93930328 49.63814133 48.65204407 49.6317514 49.38638306 49.62516785 C54.8425097 49.46640407 58.96252139 48.19203945 63.05078125 44.51171875 C67.00952153 39.75509283 70.7608097 34.87060391 74.4453125 29.8984375 C78.10636737 24.96361184 81.83813631 20.08241255 85.5625 15.1953125 C86.25657959 14.28305908 86.95065918 13.37080566 87.66577148 12.4309082 C88.66072632 11.12512817 88.66072632 11.12512817 89.67578125 9.79296875 C90.26786377 9.01574463 90.85994629 8.23852051 91.4699707 7.43774414 C92.05738037 6.6771167 92.64479004 5.91648926 93.25 5.1328125 C94.14223267 3.76624512 94.14223267 3.76624512 95.05249023 2.37207031 C97.25 0.1328125 97.25 0.1328125 100.36621094 -0.43481445 C101.56020508 -0.40863037 102.75419922 -0.38244629 103.984375 -0.35546875 C105.92763672 -0.33129883 105.92763672 -0.33129883 107.91015625 -0.30664062 C109.27345428 -0.26486689 110.63673552 -0.2225422 112 -0.1796875 C113.37886624 -0.1545966 114.75777597 -0.13178479 116.13671875 -0.11132812 C119.50891356 -0.05237367 122.87890741 0.02988079 126.25 0.1328125 C126.86083984 2.46459961 126.86083984 2.46459961 127.25 5.1328125 C125.4765625 7.82421875 125.4765625 7.82421875 122.875 10.6953125 C121.93239003 11.7647236 120.99233855 12.83639456 120.0546875 13.91015625 C119.34070801 14.72009033 119.34070801 14.72009033 118.61230469 15.54638672 C116.62192753 17.86421302 114.81229309 20.29924885 113 22.7578125 C104.35815808 34.42353161 95.36617515 45.83480396 86.25 57.1328125 C84.91609193 58.79901922 83.58262354 60.46557825 82.25 62.1328125 C83.11238281 62.50986328 83.11238281 62.50986328 83.9921875 62.89453125 C92.45410971 67.53541246 98.25610092 76.80914573 103.94091797 84.40039062 C106.14892312 87.32243549 108.41874268 90.19534644 110.6875 93.0703125 C111.60552334 94.23563408 112.52349177 95.40099892 113.44140625 96.56640625 C113.90047363 97.14890137 114.35954102 97.73139648 114.83251953 98.33154297 C116.29615208 100.19146046 117.75597609 102.05431196 119.21484375 103.91796875 C119.70218994 104.54002197 120.18953613 105.1620752 120.69165039 105.80297852 C121.61467983 106.9813307 122.53709212 108.16016671 123.45874023 109.33959961 C123.88227783 109.87979736 124.30581543 110.41999512 124.7421875 110.9765625 C125.15162598 111.49968018 125.56106445 112.02279785 125.98291016 112.56176758 C127.30590324 114.20212606 128.69002688 115.77789123 130.078125 117.36328125 C132.25 120.1328125 132.25 120.1328125 132.125 122.9453125 C131.25 125.1328125 131.25 125.1328125 130.25 126.1328125 C125.84137757 126.4712124 121.41993288 126.45794659 117 126.5078125 C115.13794922 126.56388672 115.13794922 126.56388672 113.23828125 126.62109375 C104.06198224 126.70999223 104.06198224 126.70999223 100.18359375 123.953125 C99.54550781 123.02242187 98.90742187 122.09171875 98.25 121.1328125 C97.48300781 120.25625 96.71601562 119.3796875 95.92578125 118.4765625 C89.24412341 110.43648496 82.80639027 102.22190155 76.54296875 93.8515625 C74.70523639 91.39600577 72.85310341 88.95178169 71 86.5078125 C70.4215332 85.72519043 69.84306641 84.94256836 69.24707031 84.13623047 C68.68600586 83.40033691 68.12494141 82.66444336 67.546875 81.90625 C67.05541992 81.25060059 66.56396484 80.59495117 66.05761719 79.91943359 C61.17607415 75.09459136 56.05218852 74.67430637 49.5703125 74.62109375 C48.35116653 74.59416695 48.35116653 74.59416695 47.10739136 74.56669617 C44.5299792 74.51282892 41.9527497 74.47877414 39.375 74.4453125 C37.61976638 74.41211851 35.86455679 74.37762693 34.109375 74.34179688 C29.82304897 74.25711639 25.53677488 74.19019353 21.25 74.1328125 C21.25666183 74.75477509 21.26332367 75.37673767 21.27018738 76.01754761 C21.3364033 82.47339728 21.3817432 88.92915098 21.41479492 95.38525391 C21.42990945 97.79675207 21.45040153 100.20822264 21.47631836 102.61962891 C21.51258425 106.07982178 21.52969956 109.53965221 21.54296875 113 C21.55845261 114.08336639 21.57393646 115.16673279 21.58988953 116.28292847 C21.59011612 117.283815 21.59034271 118.28470154 21.59057617 119.31591797 C21.59723801 120.19972137 21.60389984 121.08352478 21.61076355 121.99411011 C21.49171158 122.6998819 21.37265961 123.40565369 21.25 124.1328125 C17.93429699 126.34328118 16.85885231 126.38911922 12.99609375 126.3984375 C11.46758789 126.40230469 11.46758789 126.40230469 9.90820312 126.40625 C8.84537109 126.39851562 7.78253906 126.39078125 6.6875 126.3828125 C5.62080078 126.39054688 4.55410156 126.39828125 3.45507812 126.40625 C1.92850586 126.40238281 1.92850586 126.40238281 0.37109375 126.3984375 C-0.5629126 126.39618164 -1.49691895 126.39392578 -2.45922852 126.39160156 C-4.75 126.1328125 -4.75 126.1328125 -6.75 124.1328125 C-6.99888897 121.96857357 -6.99888897 121.96857357 -6.99723816 119.22947693 C-7.00352989 117.67510925 -7.00352989 117.67510925 -7.00994873 116.08934021 C-7.00432922 114.94796097 -6.99870972 113.80658173 -6.99291992 112.63061523 C-6.99481827 111.4322403 -6.99671661 110.23386536 -6.99867249 108.99917603 C-7.00174834 105.70791685 -6.99585762 102.41690747 -6.98571944 99.12567782 C-6.9769511 95.68681915 -6.97869614 92.24796486 -6.9790802 88.80909729 C-6.97814311 83.03457367 -6.96945248 77.26010254 -6.95581055 71.4855957 C-6.94007711 64.80089829 -6.93481267 58.11625836 -6.9355461 51.43154377 C-6.93615556 45.01042088 -6.93105809 38.58931679 -6.92275429 32.16819954 C-6.91921568 29.43096838 -6.91739022 26.69374388 -6.91686058 23.95651054 C-6.91567339 20.1395246 -6.90597693 16.32258691 -6.89526367 12.50561523 C-6.89571686 11.36221176 -6.89617004 10.21880829 -6.89663696 9.04075623 C-6.89237198 8.00733093 -6.88810699 6.97390564 -6.88371277 5.90916443 C-6.88203692 5.00563956 -6.88036108 4.1021147 -6.87863445 3.17121029 C-6.61027624 -1.08131125 -3.59436116 0.00376204 0 0 Z " fill="#FEFEFE" transform="translate(13.75,595.8671875)"/>
<path d="M0 0 C0.76121658 -0.00570007 1.52243317 -0.01140015 2.30671692 -0.01727295 C3.92329513 -0.02674022 5.53989279 -0.03326376 7.15649414 -0.03710938 C9.61704932 -0.04676713 12.07675218 -0.07775278 14.53710938 -0.109375 C16.10806796 -0.11590976 17.67903252 -0.12115837 19.25 -0.125 C20.34721626 -0.1435202 20.34721626 -0.1435202 21.46659851 -0.16241455 C26.2134156 -0.14197734 29.53497606 0.48364246 33.45703125 3.203125 C37.19210865 8.69474926 36.88216098 14.01722249 36.84521484 20.40917969 C36.8504718 21.52850388 36.85572876 22.64782806 36.86114502 23.80107117 C36.87432556 27.4925236 36.86561583 31.18354336 36.85546875 34.875 C36.85748946 37.43996259 36.86040088 40.00492463 36.86416626 42.56988525 C36.86858651 47.93971775 36.86245243 53.3093878 36.84814453 58.67919922 C36.83178632 64.89030437 36.83713282 71.10111457 36.85362375 77.31221271 C36.8688608 83.29020701 36.86727153 89.26805669 36.85847855 95.24607086 C36.85647238 97.78988944 36.85895031 100.33371551 36.86591721 102.87752533 C36.87349999 106.423439 36.86197313 109.96877781 36.84521484 113.51464844 C36.85432388 115.1027256 36.85432388 115.1027256 36.86361694 116.72288513 C36.85515747 117.68459122 36.846698 118.6462973 36.83798218 119.637146 C36.8368511 120.47555904 36.83572002 121.31397209 36.83455467 122.1777916 C36.64768058 123.18033163 36.64768058 123.18033163 36.45703125 124.203125 C31.98440398 127.18487651 27.71755325 126.53239962 22.45703125 126.515625 C21.44640625 126.53173828 20.43578125 126.54785156 19.39453125 126.56445312 C17.94046875 126.56541992 17.94046875 126.56541992 16.45703125 126.56640625 C15.57015625 126.56938721 14.68328125 126.57236816 13.76953125 126.57543945 C10.93497657 126.11907376 10.22627883 125.41974399 8.45703125 123.203125 C8.07227039 121.31909657 8.07227039 121.31909657 8.05830383 119.15986633 C8.03949661 117.92942093 8.03949661 117.92942093 8.02030945 116.67411804 C8.02246208 115.32976433 8.02246208 115.32976433 8.0246582 113.95825195 C8.01446655 113.01171753 8.0042749 112.06518311 7.99377441 111.08996582 C7.96354707 107.95705318 7.95436353 104.8244458 7.9453125 101.69140625 C7.92847305 99.52091955 7.91032382 97.35044266 7.89091492 95.17997742 C7.84332919 89.46388815 7.81357524 83.74783859 7.78747559 78.03161621 C7.75771332 72.20003414 7.71116815 66.368589 7.66601562 60.53710938 C7.57988495 49.09251942 7.51258309 37.64790136 7.45703125 26.203125 C6.38582031 26.14253906 5.31460938 26.08195313 4.2109375 26.01953125 C2.81378734 25.93513963 1.41665268 25.85049094 0.01953125 25.765625 C-0.68751953 25.72630859 -1.39457031 25.68699219 -2.12304688 25.64648438 C-7.4296875 25.31640625 -7.4296875 25.31640625 -8.54296875 24.203125 C-8.64229028 22.50753774 -8.67376882 20.80786753 -8.67578125 19.109375 C-8.67771484 17.56443359 -8.67771484 17.56443359 -8.6796875 15.98828125 C-8.67582031 14.90417969 -8.67195312 13.82007813 -8.66796875 12.703125 C-8.67183594 11.61902344 -8.67570313 10.53492188 -8.6796875 9.41796875 C-8.67839844 8.38800781 -8.67710937 7.35804688 -8.67578125 6.296875 C-8.67465332 5.34490234 -8.67352539 4.39292969 -8.67236328 3.41210938 C-8.38719269 -1.45623685 -3.84409884 0.02202937 0 0 Z " fill="#FEFEFE" transform="translate(210.54296875,595.796875)"/>
<path d="M0 0 C2.49724106 2.18414286 4.83659984 4.44585339 7.1484375 6.82421875 C7.78265625 7.4378125 8.416875 8.05140625 9.0703125 8.68359375 C19.48231809 19.46416591 24.15071163 34.18727257 24.23828125 48.9375 C23.84287432 65.91972087 17.76490257 80.88103694 6.046875 93.1796875 C-2.36286684 100.85272689 -11.77268922 106.05037268 -22.8515625 108.82421875 C-23.61210937 109.015 -24.37265625 109.20578125 -25.15625 109.40234375 C-41.9043761 112.02378957 -57.42939408 108.56543924 -71.8515625 99.82421875 C-75.47456749 97.07113038 -78.680032 94.08131212 -81.8515625 90.82421875 C-82.80289063 89.92123047 -82.80289063 89.92123047 -83.7734375 89 C-87.75226005 84.94195311 -90.245859 80.47282811 -92.6640625 75.38671875 C-93.09948364 74.4738208 -93.09948364 74.4738208 -93.54370117 73.54248047 C-99.83534503 59.55568647 -99.97484218 42.35091987 -95.09765625 27.921875 C-89.16683877 13.17849488 -79.07124089 1.1986498 -64.8515625 -6.17578125 C-43.3361336 -15.34317626 -19.08297141 -14.5605686 0 0 Z M-77.8515625 10.82421875 C-78.41488281 11.365625 -78.97820312 11.90703125 -79.55859375 12.46484375 C-89.68990815 23.05059705 -93.24615741 37.10956896 -93.22290039 51.31030273 C-92.83640931 65.92479756 -86.27518549 79.01538264 -76.33984375 89.53515625 C-64.16001262 100.73983607 -49.88849367 105.34624004 -33.625 105.0703125 C-17.4778725 104.01723897 -4.60861818 96.49974951 6.1484375 84.82421875 C15.84980575 72.27361983 20.33077418 57.94917241 18.68359375 42.12109375 C16.10092669 26.21035656 8.4102539 12.7288197 -4.6015625 3.07421875 C-28.74535521 -12.86142391 -57.5837479 -9.69830806 -77.8515625 10.82421875 Z " fill="#FEFEFE" transform="translate(225.8515625,222.17578125)"/>
<path d="M0 0 C12.16865945 9.45647681 20.45087487 20.97832844 22.71875 36.4609375 C24.27000616 50.46533337 20.38183249 64.04304213 12.21875 75.5 C4.29002083 85.11845834 -7.61845589 92.09102994 -20 94 C-36.68467294 95.06017193 -50.10716523 92.09627348 -63.25 81.12109375 C-73.401928 71.60366125 -78.92835578 59.21056735 -79.47290039 45.32836914 C-79.64852124 30.23921586 -75.07595598 17.65425758 -64.9375 6.3125 C-47.4185985 -9.95225195 -20.2816868 -13.24719575 0 0 Z M-62.99609375 12.58203125 C-72.61146944 24.18420972 -75.2803477 36.23235319 -74 51 C-71.54021416 63.40142028 -64.93402336 73.39388271 -54.98046875 81.0546875 C-43.81421524 88.34275336 -31.33932126 90.81868947 -18.1796875 88.50390625 C-6.05933388 85.141363 4.70243963 77.71941538 11.4375 67 C17.82775751 55.24842475 19.54462482 43.18726978 16.078125 30.140625 C11.80077356 17.68051427 4.36350713 8.57029178 -7 2 C-26.73969589 -6.86545365 -47.98217097 -3.45251598 -62.99609375 12.58203125 Z " fill="#FEFEFE" transform="translate(217,228)"/>
<path d="M0 0 C1.11125244 -0.00622879 2.22250488 -0.01245758 3.36743164 -0.01887512 C4.56746826 -0.00966537 5.76750488 -0.00045563 7.00390625 0.0090332 C8.2355249 0.0085347 9.46714355 0.00803619 10.73608398 0.00752258 C14.00989847 0.01046508 17.2832799 0.02750122 20.55700684 0.04974365 C22.56444923 0.05980464 24.57163965 0.06012686 26.57910156 0.05664062 C30.42915222 0.0502381 34.27887826 0.05813794 38.12890625 0.0715332 C39.32894287 0.0706218 40.52897949 0.06971039 41.76538086 0.06877136 C43.43225952 0.08306938 43.43225952 0.08306938 45.1328125 0.09765625 C46.11193604 0.10226364 47.09105957 0.10687103 48.09985352 0.11161804 C50.56640625 0.37231445 50.56640625 0.37231445 53.56640625 2.37231445 C53.84211231 5.28946247 53.93866235 7.96099706 53.87890625 10.87231445 C53.88212891 11.65735352 53.88535156 12.44239258 53.88867188 13.2512207 C53.83344494 19.10527576 53.83344494 19.10527576 51.56640625 21.37231445 C49.13745117 21.63301086 49.13745117 21.63301086 46.046875 21.64697266 C44.89227783 21.65650467 43.73768066 21.66603668 42.5480957 21.67585754 C41.29601318 21.67494614 40.04393066 21.67403473 38.75390625 21.6730957 C36.83421021 21.67952339 36.83421021 21.67952339 34.87573242 21.68608093 C32.16548525 21.69354687 29.45536834 21.69324899 26.74511719 21.68798828 C23.26781402 21.68218905 19.7910427 21.69913295 16.31382751 21.72233295 C13.00216419 21.74058426 9.69061969 21.73688568 6.37890625 21.7355957 C5.12682373 21.74480545 3.87474121 21.7540152 2.5847168 21.76350403 C0.85282104 21.75416084 0.85282104 21.75416084 -0.9140625 21.74462891 C-1.93395264 21.74525833 -2.95384277 21.74588776 -4.00463867 21.74653625 C-4.80619385 21.62304306 -5.60774902 21.49954987 -6.43359375 21.37231445 C-8.84335081 17.75767886 -8.76598807 15.05012185 -8.74609375 10.87231445 C-8.77026367 9.85717773 -8.77026367 9.85717773 -8.79492188 8.8215332 C-8.79977893 3.89648122 -8.79977893 3.89648122 -7.25048828 1.67878723 C-4.75441148 -0.11606455 -3.06044037 -0.00196739 0 0 Z " fill="#FEFEFE" transform="translate(141.43359375,648.627685546875)"/>
<path d="M0 0 C8.64258587 7.77074607 12.41854223 19.00152771 13.34375 30.2890625 C12.99915342 41.10078005 8.86399092 51.89676942 1.66015625 60.00390625 C-8.32695342 69.03301979 -18.98940099 72.1403774 -32.21875 71.8203125 C-43.93300037 70.74650622 -52.44590386 65.59737075 -60.28125 57.0390625 C-68.39097539 46.99738037 -70.23899028 35.0868729 -68.96875 22.4765625 C-66.71276771 12.08109865 -60.81439644 2.49020356 -51.96875 -3.5234375 C-34.46966371 -13.98800737 -16.09336367 -12.45319808 0 0 Z M-52.96875 4.4765625 C-53.51015625 4.97800781 -54.0515625 5.47945312 -54.609375 5.99609375 C-61.10418085 12.73691497 -64.23648834 21.26931637 -64.53125 30.5390625 C-63.99953303 42.62233064 -59.70454201 50.24676185 -50.96875 58.4765625 C-43.45374272 65.18696515 -35.19987424 67.09884919 -25.2421875 66.8203125 C-15.09380713 65.75461146 -7.01510523 60.98669655 -0.18359375 53.52734375 C5.79204412 46.05412588 8.23516035 38.04760448 8.03125 28.4765625 C6.57370883 18.18267801 2.76463697 10.43661077 -4.96875 3.4765625 C-5.71125 2.7959375 -6.45375 2.1153125 -7.21875 1.4140625 C-21.51208108 -8.65623895 -40.13149178 -7.6835009 -52.96875 4.4765625 Z " fill="#FEFEFE" transform="translate(216.96875,240.5234375)"/>
<path d="M0 0 C6.3886804 4.46599182 11.30462503 10.31260651 13.80078125 17.74609375 C15.49288252 27.45341156 14.70979011 35.15184594 10.17578125 43.87109375 C3.53389245 51.91127493 -2.79158199 57.00998896 -13.3046875 58.0546875 C-23.24513202 58.43925335 -30.39655416 56.34829833 -38.07421875 49.99609375 C-43.80653697 44.56760865 -46.83328253 38.50926351 -47.4375 30.64453125 C-47.65504303 20.31696211 -46.18968987 12.01303758 -38.96484375 4.27734375 C-27.9190214 -5.302219 -12.77037653 -7.28115607 0 0 Z M-38.90234375 13.6484375 C-42.70860764 19.80495469 -43.03879037 25.65834174 -42.19921875 32.74609375 C-39.49130357 41.63813152 -33.73510918 47.09302576 -25.88671875 51.68359375 C-18.23228293 53.88910916 -11.31549712 53.59766139 -4.1953125 49.9296875 C3.29920042 45.48577866 7.12834656 39.77917105 9.4375 31.44921875 C10.61983207 24.27894685 9.00529295 18.03393845 4.98046875 12.03125 C-0.95512985 4.78726676 -7.11089941 1.59845846 -16.32421875 0.30859375 C-26.08371444 1.7937344 -33.01955792 5.69402548 -38.90234375 13.6484375 Z " fill="#FEFEFE" transform="translate(205.19921875,244.25390625)"/>
<path d="M0 0 C24.02032124 3.17660045 55.20841318 40.04491528 69 58 C69.80695313 59.01320312 70.61390625 60.02640625 71.4453125 61.0703125 C75.93408644 66.73608922 80.18654908 72.5413217 84.1875 78.5625 C84.58646484 79.14620361 84.98542969 79.72990723 85.39648438 80.33129883 C86.96446943 82.75072802 88.0187424 84.40912106 87.92578125 87.33984375 C87 89 87 89 84 90 C83.69408936 89.52804199 83.38817871 89.05608398 83.07299805 88.56982422 C73.14192784 73.30803805 62.64227526 59.1403979 50 46 C49.40026367 45.37303223 48.80052734 44.74606445 48.18261719 44.10009766 C39.34671106 34.91066635 30.29767368 26.51857026 20 19 C19.39349609 18.55398437 18.78699219 18.10796875 18.16210938 17.6484375 C11.60177303 12.839814 4.97924848 8.18754909 -2 4 C-1.34 2.68 -0.68 1.36 0 0 Z " fill="#FEFEFE" transform="translate(323,49)"/>
<path d="M0 0 C5.17109596 0.31939122 8.47799167 2.3315979 12.5 5.375 C13.10384521 5.82053223 13.70769043 6.26606445 14.32983398 6.72509766 C16.23044355 8.13658519 18.11627281 9.56608166 20 11 C20.59441895 11.44730469 21.18883789 11.89460938 21.80126953 12.35546875 C30.69113388 19.06405795 38.99177658 26.26439695 47 34 C47.62084473 34.59893066 48.24168945 35.19786133 48.88134766 35.81494141 C63.25059347 49.75257032 78.87277793 65.9795872 88 84 C87.6875 86.8125 87.6875 86.8125 87 89 C86.01 89 85.02 89 84 89 C82.20169195 86.66098446 80.59462487 84.34790556 79 81.875 C71.31290695 70.34436043 62.90838635 59.72311538 53.4296875 49.6171875 C51.48217645 47.51938621 49.62911965 45.39690227 47.8125 43.1875 C45.18999408 40.08681637 42.26614988 37.48643533 39.171875 34.86328125 C36.88880599 32.90460514 34.70133397 30.86239992 32.5 28.8125 C22.81863183 20.08437423 12.13868519 12.47006464 1.0625 5.62109375 C0.381875 5.08613281 -0.29875 4.55117188 -1 4 C-1 1 -1 1 0 0 Z " fill="#FEFEFE" transform="translate(330,42)"/>
<path d="M0 0 C1.32 1.32 2.64 2.64 4 4 C-8.96742045 25.03985438 -24.69096134 46.30644513 -43.82421875 62.19140625 C-45.54482134 63.62163785 -47.22711552 65.09794547 -48.89453125 66.58984375 C-55.836481 72.77349026 -63.0709301 78.35329735 -70.6875 83.6875 C-71.56116211 84.29988525 -72.43482422 84.91227051 -73.33496094 85.54321289 C-79.5951446 89.8650482 -79.5951446 89.8650482 -83 91 C-83.99 90.34 -84.98 89.68 -86 89 C-86 88.01 -86 87.02 -86 86 C-84.015625 84.4921875 -84.015625 84.4921875 -81.25 82.875 C-65.7809059 73.43488617 -52.11400857 61.43270354 -39 49 C-38.24589844 48.2884375 -37.49179687 47.576875 -36.71484375 46.84375 C-32.19464466 42.4583481 -28.20472619 37.73818449 -24.26953125 32.82421875 C-22.832763 31.03629544 -21.37421199 29.26547988 -19.88671875 27.51953125 C-12.5387201 18.85507215 -6.31230835 9.43105517 0 0 Z " fill="#FEFEFE" transform="translate(415,410)"/>
<path d="M0 0 C3.875 1.75 3.875 1.75 5 4 C-5.21914059 19.76605888 -15.93432199 34.44831493 -29 48 C-29.66451172 48.69174316 -30.32902344 49.38348633 -31.01367188 50.09619141 C-40.45650021 59.87385687 -49.97602385 69.03471598 -61 77 C-61.71671875 77.52384277 -62.4334375 78.04768555 -63.171875 78.58740234 C-65.46135052 80.25632487 -67.75925389 81.91264131 -70.0625 83.5625 C-70.77736572 84.07603027 -71.49223145 84.58956055 -72.22875977 85.11865234 C-75.71042967 87.56983393 -78.91519638 89.65432395 -83 91 C-83.66 89.35 -84.32 87.7 -85 86 C-84.50822266 85.67427002 -84.01644531 85.34854004 -83.50976562 85.01293945 C-51.14756704 63.47945704 -17.75053443 35.50106886 0 0 Z " fill="#FEFEFE" transform="translate(407,403)"/>
<path d="M0 0 C23.3517344 3.08818227 53.46639419 38.51497644 67 56 C67.80953125 57.01578125 68.6190625 58.0315625 69.453125 59.078125 C73.94579195 64.7539357 78.16930325 70.56112541 82.125 76.625 C82.51558594 77.21708252 82.90617187 77.80916504 83.30859375 78.41918945 C85.07245245 81.18163271 86 82.65513418 86 86 C84.68 86.33 83.36 86.66 82 87 C80.87411277 85.45898116 79.74937289 83.91712409 78.625 82.375 C77.89023437 81.36824219 77.15546875 80.36148438 76.3984375 79.32421875 C74.79488071 77.1145674 73.21962398 74.88820451 71.6640625 72.64453125 C57.45720252 52.22180627 40.19615005 33.60557993 20 19 C19.3910791 18.55688477 18.7821582 18.11376953 18.15478516 17.65722656 C14.12828257 14.73511823 10.06903106 11.86248763 6 9 C3.66418193 7.33678147 1.33195776 5.66863223 -1 4 C-0.67 2.68 -0.34 1.36 0 0 Z " fill="#FEFEFE" transform="translate(317,57)"/>
<path d="M0 0 C3.15590132 1.85202978 6.03209349 4.03061669 8.9375 6.25 C9.77941895 6.88478271 10.62133789 7.51956543 11.48876953 8.17358398 C23.39751561 17.24331568 34.24776719 27.08423549 44.875 37.625 C45.74302246 38.48359619 46.61104492 39.34219238 47.50537109 40.22680664 C56.33091295 49.09714391 64.02011359 58.79830997 71.5 68.8125 C72.11875 69.61880859 72.7375 70.42511719 73.375 71.25585938 C78.93521789 78.71216034 78.93521789 78.71216034 79 84 C78.67 84.66 78.34 85.32 78 86 C74.02984088 84.4991926 72.63646577 82.30254081 70.4375 78.75 C63.42665775 67.89617755 55.30969136 58.07763152 46.4765625 48.6640625 C44.4540171 46.48839063 42.52831736 44.27835527 40.625 42 C28.70688311 28.326721 13.71530897 17.47508668 -1.0390625 7.09375 C-2.01617187 6.4028125 -2.99328125 5.711875 -4 5 C-4.79148437 4.4534375 -5.58296875 3.906875 -6.3984375 3.34375 C-6.92695313 2.9003125 -7.45546875 2.456875 -8 2 C-8 1.34 -8 0.68 -8 0 C-4.91531994 -1.54234003 -3.32953446 -0.92423937 0 0 Z " fill="#FEFEFE" transform="translate(345,37)"/>
<path d="M0 0 C0.66 0 1.32 0 2 0 C3.33203125 1.9921875 3.33203125 1.9921875 4 5 C2.65908847 8.00961928 0.67955616 10.51536878 -1.3125 13.125 C-1.86848877 13.87982666 -2.42447754 14.63465332 -2.99731445 15.41235352 C-4.6417246 17.62704651 -6.31270005 19.81786194 -8 22 C-8.4340918 22.56154785 -8.86818359 23.1230957 -9.31542969 23.70166016 C-13.84469619 29.49573843 -18.7035948 34.99186327 -23.6640625 40.41796875 C-24.98000148 41.87254344 -26.28762457 43.33509093 -27.56518555 44.82348633 C-31.66528204 49.59607016 -35.95848445 54.02560941 -40.5625 58.3125 C-41.25794922 58.96057617 -41.95339844 59.60865234 -42.66992188 60.27636719 C-53.96821256 70.68539295 -66.2632902 79.44820913 -79 88 C-80.65 87.01 -82.3 86.02 -84 85 C-80.54071317 82.18849468 -77.00887533 79.4965698 -73.4309082 76.83984375 C-53.45470715 61.99943124 -34.34471062 45.71148836 -19 26 C-18.48614746 25.34128906 -17.97229492 24.68257813 -17.44287109 24.00390625 C-8.81615777 12.99310894 -8.81615777 12.99310894 -1.05078125 1.37109375 C-0.53064453 0.69240234 -0.53064453 0.69240234 0 0 Z " fill="#FEFEFE" transform="translate(421,419)"/>
<path d="M0 0 C1.65 0.66 3.3 1.32 5 2 C-1.23755386 14.40944926 -10.01020968 25.48515596 -19 36 C-19.66 36.77214844 -20.32 37.54429687 -21 38.33984375 C-31.33236863 50.10074062 -42.46175539 61.59230302 -55 71 C-55.68916504 71.51723633 -56.37833008 72.03447266 -57.08837891 72.56738281 C-59.44621662 74.3276487 -61.81430108 76.07300646 -64.1875 77.8125 C-64.93628418 78.36446045 -65.68506836 78.9164209 -66.45654297 79.48510742 C-71.12558432 82.85673466 -75.78171738 85.5592857 -81 88 C-81.66 86.35 -82.32 84.7 -83 83 C-82.50822266 82.67427002 -82.01644531 82.34854004 -81.50976562 82.01293945 C-66.53894869 72.05150799 -52.60598389 61.44131433 -39.4375 49.1875 C-38.79466064 48.58953613 -38.15182129 47.99157227 -37.48950195 47.37548828 C-33.03298467 43.15364713 -28.95933985 38.68883104 -25 34 C-24.51684326 33.42838135 -24.03368652 32.8567627 -23.53588867 32.26782227 C-14.96905888 22.00360547 -7.40556622 11.12096836 0 0 Z " fill="#FEFEFE" transform="translate(399,398)"/>
<path d="M0 0 C2.97 0.495 2.97 0.495 6 1 C4.36629371 5.98916293 1.46498825 9.90357272 -1.5625 14.125 C-2.10044189 14.87982666 -2.63838379 15.63465332 -3.19262695 16.41235352 C-7.55898957 22.48867481 -12.10771328 28.33430031 -17 34 C-17.680625 34.79148437 -18.36125 35.58296875 -19.0625 36.3984375 C-34.67232341 54.13165601 -53.01303955 71.75979272 -74 83 C-74.66 83 -75.32 83 -76 83 C-76.495 80.525 -76.495 80.525 -77 78 C-75.39583333 76.83333333 -73.79166667 75.66666667 -72.1875 74.5 C-71.17816406 73.76394531 -70.16882813 73.02789062 -69.12890625 72.26953125 C-67.18613139 70.86035248 -65.23676832 69.4601532 -63.27734375 68.07421875 C-55.82806754 62.77524907 -48.88880405 56.99633625 -42 51 C-40.61361328 49.80117188 -40.61361328 49.80117188 -39.19921875 48.578125 C-34.02181848 44.02138424 -29.41825185 39.2854707 -25 34 C-24.19046875 33.07832031 -23.3809375 32.15664063 -22.546875 31.20703125 C-14.25235296 21.71488026 -5.46839315 11.42646965 0 0 Z " fill="#FEFEFE" transform="translate(389,394)"/>
<path d="M0 0 C14.29440198 6.76128301 26.50102118 17.30131641 38 28 C39.39160821 29.2131969 40.78727188 30.42176214 42.1875 31.625 C48.68110756 37.31340022 54.27528833 43.38978377 59.68359375 50.125 C61.17495378 51.9759966 62.68661746 53.81090849 64.22265625 55.625 C68.64819379 60.87008153 72.74165888 66.28378202 76.625 71.9375 C77.07544678 72.57655273 77.52589355 73.21560547 77.98999023 73.87402344 C81.09015872 78.48908175 81.09015872 78.48908175 80.61083984 81.20532227 C80.4092627 81.79756592 80.20768555 82.38980957 80 83 C78.68 83 77.36 83 76 83 C74.28372464 80.81564954 72.86978376 78.73605274 71.4375 76.375 C63.20544096 63.45733033 53.58578884 52.04250013 43 41 C42.10539062 40.05253906 41.21078125 39.10507813 40.2890625 38.12890625 C28.3444269 25.78144569 13.86798124 14.63838016 -1 6 C-0.67 4.02 -0.34 2.04 0 0 Z " fill="#FEFEFE" transform="translate(313,65)"/>
<path d="M0 0 C4.40587177 4.03167444 6.59776713 9.69779417 6.875 15.59765625 C6.37554914 22.49632125 4.5734746 27.4862708 -0.625 32.1875 C-5.82637599 36.60510701 -10.80114053 37.39349832 -17.46484375 37.25 C-23.14511537 36.61266237 -27.34632782 34.2510062 -31.125 30 C-35.63845371 23.49531671 -35.92417931 17.69056212 -35.25 9.9375 C-32.99420959 3.4075804 -28.33727835 -0.9408188 -22.25 -4.0625 C-14.20869301 -7.01097923 -6.83037082 -4.3346584 0 0 Z M-27.6875 6.5 C-30.64778379 11.11804272 -30.9082274 15.59854444 -30.25 20.9375 C-27.54820537 26.2410228 -23.95503105 30.03582298 -18.25 31.9375 C-12.27185998 32.54544644 -8.88765394 31.81510776 -3.9453125 28.35546875 C-0.5438796 25.51049146 0.5096463 22.84741043 1.625 18.625 C1.80716812 13.25104051 0.68868783 9.35823994 -2.6953125 5.1328125 C-6.39221071 1.53908354 -9.81444842 -0.05022108 -14.9765625 -0.296875 C-20.30458891 0.25240607 -24.05757103 2.68392082 -27.6875 6.5 Z " fill="#FEFEFE" transform="translate(203.25,255.0625)"/>
<path d="M0 0 C0.66 0 1.32 0 2 0 C2.87224572 3.18451974 3.57098615 5.7671597 2.13476562 8.86816406 C0.75936247 10.87229285 -0.70540769 12.74808561 -2.25 14.625 C-2.797771 15.32012695 -3.34554199 16.01525391 -3.90991211 16.73144531 C-5.58415606 18.8403418 -7.28670435 20.9227608 -9 23 C-9.48678223 23.5971582 -9.97356445 24.19431641 -10.47509766 24.80957031 C-48.87676464 71.78846507 -48.87676464 71.78846507 -72 82 C-75.5625 81.875 -75.5625 81.875 -78 81 C-76.47558554 76.81955053 -73.84662934 75.30465139 -70.1875 72.9375 C-62.98227819 68.1427634 -56.4945709 62.70506857 -50 57 C-48.75669922 55.92492187 -48.75669922 55.92492187 -47.48828125 54.828125 C-36.08307403 44.79908328 -25.25757457 34.05348635 -16 22 C-14.89073674 20.57282981 -13.78135197 19.14575406 -12.671875 17.71875 C-11.48849931 16.18833759 -10.30620725 14.65708667 -9.125 13.125 C-8.28461182 12.03566162 -8.28461182 12.03566162 -7.42724609 10.92431641 C-5.19542696 8.00213207 -3.1001716 5.17140474 -1.2421875 1.9921875 C-0.83226562 1.33476562 -0.42234375 0.67734375 0 0 Z " fill="#FEFEFE" transform="translate(426,429)"/>
<path d="M0 0 C2.6192354 1.59169508 5.01848801 3.43409501 7.4375 5.3125 C8.50182251 6.12980591 8.50182251 6.12980591 9.58764648 6.96362305 C11.73691329 8.62796648 13.87103101 10.30979521 16 12 C16.57395508 12.45246094 17.14791016 12.90492187 17.73925781 13.37109375 C26.29769375 20.19296031 34.05866093 27.85630166 41.8125 35.5625 C42.30082306 36.04546539 42.78914612 36.52843079 43.29226685 37.02603149 C49.99169937 43.66963424 56.14415275 50.60006311 62 58 C62.607229 58.74258057 63.21445801 59.48516113 63.84008789 60.25024414 C65.460162 62.23162807 67.04558706 64.236147 68.625 66.25 C69.16511719 66.90484375 69.70523438 67.5596875 70.26171875 68.234375 C73.07680098 71.86302319 74.0319614 73.22379453 73.8359375 77.984375 C73.56007813 78.97953125 73.28421875 79.9746875 73 81 C68.95242294 79.65080765 68.20128289 77.66862088 65.875 74.125 C59.68362567 64.89766646 52.60608968 56.55216784 45.125 48.34375 C43.17505276 46.19307289 41.26973871 44.01175029 39.375 41.8125 C26.49358999 27.06550648 10.63031562 14.40138364 -5.71875 3.70703125 C-6.4715625 3.14371094 -7.224375 2.58039062 -8 2 C-8 1.34 -8 0.68 -8 0 C-4.5119511 -1.16268297 -3.46770207 -1.11688294 0 0 Z " fill="#FEFEFE" transform="translate(355,32)"/>
<path d="M0 0 C1.65 0.33 3.3 0.66 5 1 C3.49781173 5.38343462 1.14570132 8.91321035 -1.5625 12.625 C-2.23067749 13.54804932 -2.23067749 13.54804932 -2.91235352 14.48974609 C-18.30446036 35.56757001 -36.39833197 53.60112852 -57.4375 69 C-58.61022461 69.86492065 -58.61022461 69.86492065 -59.80664062 70.74731445 C-60.92135742 71.5530188 -60.92135742 71.5530188 -62.05859375 72.375 C-62.72173584 72.85710937 -63.38487793 73.33921875 -64.06811523 73.8359375 C-66.05323194 75.03207505 -67.73508846 75.56612581 -70 76 C-70.495 73.525 -70.495 73.525 -71 71 C-70.03513672 70.30777344 -70.03513672 70.30777344 -69.05078125 69.6015625 C-57.10613503 60.97960674 -45.65519565 52.19911097 -35 42 C-34.44699219 41.47954102 -33.89398438 40.95908203 -33.32421875 40.42285156 C-23.75566322 31.38888238 -15.73489547 21.62854444 -8 11 C-7.13704848 9.82527854 -6.27379087 8.65078185 -5.41015625 7.4765625 C-3.59393157 4.99321838 -1.78926051 2.50280246 0 0 Z " fill="#FEFEFE" transform="translate(380,391)"/>
<path d="M0 0 C6.01486288 2.79478477 11.09409075 6.04749886 16.3125 10.125 C17.05234131 10.69686035 17.79218262 11.2687207 18.55444336 11.85791016 C23.80855937 15.96166936 28.79745464 20.24960406 33.66015625 24.8125 C35.72324584 26.7412649 37.83515242 28.56297466 40 30.375 C53.89924632 42.55446128 65.59168338 58.15981602 75 74 C72 76 72 76 69 76 C67.34375 73.8671875 67.34375 73.8671875 65.5 70.875 C57.55075288 58.53045748 48.14072363 47.58712379 38 37 C37.29101562 36.24976563 36.58203125 35.49953125 35.8515625 34.7265625 C28.34874365 26.97875365 19.78866745 20.50658229 11.125 14.125 C10.49456787 13.66053467 9.86413574 13.19606934 9.21459961 12.7175293 C5.89813434 10.30101382 2.56375399 8.0461097 -1 6 C-0.67 4.02 -0.34 2.04 0 0 Z " fill="#FEFEFE" transform="translate(310,75)"/>
<path d="M0 0 C5.539886 -0.45913995 8.50654215 -0.33715407 13.02050781 3.30126953 C13.84566895 4.01839111 13.84566895 4.01839111 14.6875 4.75 C15.28272461 5.24226074 15.87794922 5.73452148 16.49121094 6.24169922 C22.35809829 11.15246679 27.95505377 16.3655369 33.515625 21.6171875 C35.71760016 23.6685012 37.98705691 25.6414326 40.25 27.625 C45.22587309 32.09688595 49.63008508 36.94157758 54 42 C55.01818148 43.16670828 56.03641354 44.33337243 57.0546875 45.5 C58.12051447 46.72853997 59.18562378 47.95770293 60.25 49.1875 C60.9932251 50.04251099 60.9932251 50.04251099 61.75146484 50.91479492 C70.69210119 61.32749366 70.69210119 61.32749366 71.48828125 65.65234375 C71.43027344 66.40644531 71.37226563 67.16054687 71.3125 67.9375 C71.24482422 69.09572266 71.24482422 69.09572266 71.17578125 70.27734375 C71.11777344 70.84582031 71.05976563 71.41429688 71 72 C67.36596299 68.51415953 64.25238022 64.85860797 61.25 60.8125 C57.41570375 55.73538773 53.38820573 50.94070937 49.07421875 46.2578125 C47.20979587 44.22836537 45.41225446 42.15965844 43.625 40.0625 C36.64618583 32.08671238 29.12319214 24.86693385 20.8359375 18.265625 C18.81664993 16.65242006 16.82598796 15.0254854 14.8515625 13.359375 C14.32361084 12.91408447 13.79565918 12.46879395 13.25170898 12.01000977 C11.77506838 10.76153745 10.29960615 9.51167179 8.82421875 8.26171875 C5.9868087 5.91106319 5.9868087 5.91106319 2.64453125 3.83203125 C1.77183594 3.22746094 0.89914062 2.62289063 0 2 C0 1.34 0 0.68 0 0 Z " fill="#FEFEFE" transform="translate(360,29)"/>
<path d="M0 0 C0.33 0 0.66 0 1 0 C1.41484243 5.38710869 1.40917805 8.40438655 -2.09838867 12.81762695 C-2.54029541 13.33156006 -2.98220215 13.84549316 -3.4375 14.375 C-3.88907471 14.92953857 -4.34064941 15.48407715 -4.8059082 16.05541992 C-8.38137017 20.40182721 -12.12020672 24.61164607 -15.93359375 28.75 C-17.75613486 30.7344682 -19.50783558 32.75785892 -21.25 34.8125 C-28.86596413 43.52149602 -37.13568588 51.65456551 -46.24609375 58.7890625 C-48.25817875 60.40443854 -50.14592915 62.02630714 -52.03515625 63.7734375 C-60.66313276 71.63375685 -60.66313276 71.63375685 -66.25 71.625 C-67.4875 71.41875 -68.725 71.2125 -70 71 C-66.08128204 66.90762017 -61.87078614 63.39527055 -57.4375 59.875 C-40.90410916 46.5645692 -24.98291816 31.84270464 -12 15 C-11.01818832 13.74900912 -10.03502642 12.49907718 -9.05078125 11.25 C-7.09059557 8.76225201 -5.13667535 6.26981771 -3.1875 3.7734375 C-1 1 -1 1 0 0 Z " fill="#FEFEFE" transform="translate(430,442)"/>
<path d="M0 0 C3.25 -0.375 3.25 -0.375 6 0 C4.51941523 4.25965029 2.30917348 7.74566425 -0.3125 11.375 C-0.74763916 11.97932861 -1.18277832 12.58365723 -1.63110352 13.20629883 C-12.86262397 28.52630543 -26.02657694 42.31832142 -41 54 C-41.56106445 54.43795898 -42.12212891 54.87591797 -42.70019531 55.32714844 C-56.40091302 66 -56.40091302 66 -60 66 C-60.3515625 63.2578125 -60.3515625 63.2578125 -60 60 C-57.6484375 57.8671875 -57.6484375 57.8671875 -54.375 55.875 C-53.16635645 55.09897608 -51.96206425 54.31614222 -50.76171875 53.52734375 C-50.13700684 53.11726074 -49.51229492 52.70717773 -48.86865234 52.28466797 C-30.42792173 39.60696683 -13.58205194 21.50128411 -1.84375 2.53125 C-0.93109375 1.27828125 -0.93109375 1.27828125 0 0 Z " fill="#FEFEFE" transform="translate(368,390)"/>
<path d="M0 0 C4.87315294 1.58682629 8.53309919 4.37367211 12.5625 7.4375 C13.26560303 7.96811035 13.96870605 8.4987207 14.69311523 9.04541016 C20.23262238 13.28509198 25.38491061 17.81806084 30.453125 22.60546875 C32.52265535 24.55120818 34.6186913 26.38682958 36.8125 28.1875 C40.63675771 31.4326033 43.78471657 35.16365578 47 39 C48.16208984 40.34771484 48.16208984 40.34771484 49.34765625 41.72265625 C66 61.25763138 66 61.25763138 66 66 C63.3515625 66.4453125 63.3515625 66.4453125 60 66 C57.6939768 63.94020515 56.09102837 61.43188808 54.375 58.875 C53.32691408 57.39819656 52.2747331 55.92429195 51.21875 54.453125 C50.68636719 53.70611328 50.15398437 52.95910156 49.60546875 52.18945312 C38.92650388 37.62604726 25.84720033 24.43380426 10.96875 14.203125 C10.28063232 13.72286865 9.59251465 13.2426123 8.88354492 12.74780273 C7.52635831 11.80722745 6.15690827 10.88405231 4.7746582 9.98071289 C2.89453125 8.67578125 2.89453125 8.67578125 0 6 C-0.42578125 2.66796875 -0.42578125 2.66796875 0 0 Z " fill="#FEFEFE" transform="translate(308,86)"/>
<path d="M0 0 C14.08686774 0.96046826 28.40565297 9.96781571 38 20 C45.81583428 29.08724568 55.41632894 42.31421239 55 55 C53.65234375 56.7734375 53.65234375 56.7734375 52 58 C51.34 58 50.68 58 50 58 C49.78085938 57.11699219 49.56171875 56.23398437 49.3359375 55.32421875 C44.80150902 38.16343455 35.96009747 24.06678219 21 14 C13.42003591 9.73129412 5.32702382 6.48349833 -3 4 C-2.01 2.68 -1.02 1.36 0 0 Z " fill="#FEFEFE" transform="translate(203,202)"/>
<path d="M0 0 C1.32 0.99 2.64 1.98 4 3 C2.96546047 17.82839988 -5.98915227 32.08666969 -16.65625 42.09765625 C-25.77774711 49.50127141 -36.8479048 56.73442643 -48.68359375 58.37109375 C-51 58 -51 58 -52.8125 56 C-53.204375 55.34 -53.59625 54.68 -54 54 C-53.04480469 53.70867187 -52.08960938 53.41734375 -51.10546875 53.1171875 C-30.7962812 46.75984992 -16.41418119 36.07161762 -6.25 17.0625 C-4.0788276 12.56303089 -2.74757278 8.00011274 -1.578125 3.15234375 C-1 1 -1 1 0 0 Z " fill="#FEFEFE" transform="translate(254,282)"/>
<path d="M0 0 C1.32 0.99 2.64 1.98 4 3 C3.4842068 8.60107832 2.00182028 12.8287363 -0.5625 17.8125 C-0.91892578 18.51246094 -1.27535156 19.21242188 -1.64257812 19.93359375 C-4.77060559 25.89278843 -8.45128916 31.02878045 -13 36 C-13.59039062 36.68191406 -14.18078125 37.36382812 -14.7890625 38.06640625 C-22.32572246 46.26051953 -37.2694318 57.62357773 -48.80859375 58.12109375 C-49.89333984 58.06115234 -49.89333984 58.06115234 -51 58 C-51.66 56.68 -52.32 55.36 -53 54 C-51.45892578 53.36384766 -51.45892578 53.36384766 -49.88671875 52.71484375 C-28.06925966 43.55732188 -12.52137166 31.13554656 -3.31787109 8.74731445 C-2.16632461 5.84713605 -1.07029135 2.93113881 0 0 Z " fill="#FEFEFE" transform="translate(262,290)"/>
<path d="M0 0 C15.90620369 1.63088924 30.835209 13.47144418 40.9375 25.30078125 C55.55107711 44.42574675 55.55107711 44.42574675 54.77734375 53.65625 C54 56 54 56 51 58 C50.47212891 56.56720703 50.47212891 56.56720703 49.93359375 55.10546875 C41.33340776 32.32843678 27.29374921 17.07799622 5 7 C2.35066456 5.91581042 -0.29370131 4.9367957 -3 4 C-2.01 2.68 -1.02 1.36 0 0 Z " fill="#FEFEFE" transform="translate(211,194)"/>
<path d="M0 0 C15.71957318 1.89759378 31.93913521 16.0320206 41.4296875 28.0859375 C55.40435221 46.60236823 55.40435221 46.60236823 54.83203125 54.2421875 C54 56 54 56 51 58 C50.23816406 56.42412109 50.23816406 56.42412109 49.4609375 54.81640625 C43.58788628 42.78346371 37.37363183 32.69741877 28 23 C27.40832031 22.38253906 26.81664062 21.76507813 26.20703125 21.12890625 C18.13272845 13.41108481 7.25186641 8.21273054 -3 4 C-2.01 2.68 -1.02 1.36 0 0 Z " fill="#FEFEFE" transform="translate(219,186)"/>
<path d="M0 0 C2.475 0.495 2.475 0.495 5 1 C2.30661892 18.12507973 -24.45525521 39.15900877 -37 49 C-37.53157715 49.42442383 -38.0631543 49.84884766 -38.61083984 50.28613281 C-40.23164259 51.57759765 -41.8636797 52.85327691 -43.5 54.125 C-44.96953125 55.27355469 -44.96953125 55.27355469 -46.46875 56.4453125 C-47.3040625 56.95835937 -48.139375 57.47140625 -49 58 C-49.99 57.67 -50.98 57.34 -52 57 C-52.6875 54.9375 -52.6875 54.9375 -53 53 C-52.35675781 52.55011719 -51.71351563 52.10023438 -51.05078125 51.63671875 C-30.76066864 37.19340036 -14.37873003 20.28427987 0 0 Z " fill="#FEFEFE" transform="translate(358,387)"/>
<path d="M0 0 C1.32 0.99 2.64 1.98 4 3 C3.45759588 7.98095048 1.81471253 11.90333681 -0.5625 16.25 C-0.92037598 16.90895264 -1.27825195 17.56790527 -1.64697266 18.24682617 C-4.86394124 24.01637408 -8.56015935 29.09887721 -13 34 C-13.72574219 34.81855469 -14.45148438 35.63710938 -15.19921875 36.48046875 C-23.29200344 45.10831358 -35.2661059 54.93347476 -47 58 C-50.0625 57.75 -50.0625 57.75 -52 57 C-52.495 55.515 -52.495 55.515 -53 54 C-51.45892578 53.27296875 -51.45892578 53.27296875 -49.88671875 52.53125 C-41.27964744 48.39639878 -33.50642914 43.97131884 -26 38 C-24.948125 37.21625 -23.89625 36.4325 -22.8125 35.625 C-12.3707502 25.87936685 -5.41302064 13.08146656 0 0 Z " fill="#FEFEFE" transform="translate(270,298)"/>
<path d="M0 0 C22.17147369 5.99229019 39.72075471 25.38023394 51.03515625 44.42578125 C54.17683026 50.28689973 54.17683026 50.28689973 55 53 C54.140625 55.3359375 54.140625 55.3359375 53 57 C52.01 57 51.02 57 50 57 C49.45472656 55.90042969 48.90945313 54.80085938 48.34765625 53.66796875 C43.74630761 44.57146436 38.97281196 36.53016258 32 29 C31.24203125 28.15050781 30.4840625 27.30101562 29.703125 26.42578125 C20.46459654 16.56833177 8.88856922 10.18690847 -3 4 C-2.01 2.68 -1.02 1.36 0 0 Z " fill="#FEFEFE" transform="translate(227,178)"/>
<path d="M0 0 C4.50646673 1.49092451 7.90615291 4.000109 11.5625 6.9375 C12.47733154 7.6651355 12.47733154 7.6651355 13.41064453 8.4074707 C19.53396184 13.33392171 25.30493808 18.58927303 31 24 C31.68191406 24.61746094 32.36382812 25.23492187 33.06640625 25.87109375 C37.85336865 30.3582464 41.81528632 35.44177565 45.8125 40.625 C46.37638428 41.35412598 46.94026855 42.08325195 47.52124023 42.83447266 C50.47751927 46.7355694 52.98120814 50.50907354 55 55 C53.68 55.99 52.36 56.98 51 58 C50.47998413 57.30608154 50.47998413 57.30608154 49.94946289 56.59814453 C43.29864406 47.74724494 36.67331661 39.00179763 29 31 C28.1234375 30.06027344 27.246875 29.12054688 26.34375 28.15234375 C19.63515503 21.10001206 12.35790808 15.27975347 4.46875 9.59375 C1.72707452 7.60033563 -0.69134182 5.49712007 -3 3 C-2.01 2.01 -1.02 1.02 0 0 Z " fill="#FEFEFE" transform="translate(286,119)"/>
<path d="M0 0 C1.32 0.66 2.64 1.32 4 2 C3.15098503 8.57986603 -1.03750884 12.8966894 -5 18 C-6.02673828 19.33804687 -6.02673828 19.33804687 -7.07421875 20.703125 C-17.72283915 34.16644543 -31.95707382 50.04881784 -48 57 C-50.1875 56.8125 -50.1875 56.8125 -52 56 C-52.495 54.515 -52.495 54.515 -53 53 C-52.26136719 52.52691406 -51.52273438 52.05382812 -50.76171875 51.56640625 C-30.93433982 38.6420792 -14.93514531 22.82585766 -2 3 C-1.34 2.01 -0.68 1.02 0 0 Z " fill="#FEFEFE" transform="translate(322,351)"/>
<path d="M0 0 C1.32 0.99 2.64 1.98 4 3 C2.03177362 9.77505061 -1.72725304 14.48226298 -6 20 C-6.70640625 20.91394531 -7.4128125 21.82789063 -8.140625 22.76953125 C-18.89264483 36.2869087 -32.45587134 49.95797366 -48 58 C-50.3125 57.6875 -50.3125 57.6875 -52 57 C-52 55.68 -52 54.36 -52 53 C-49.76171875 51.17578125 -49.76171875 51.17578125 -46.6875 49.3125 C-27.0216861 36.7769812 -11.70880807 20.08902522 0 0 Z " fill="#FEFEFE" transform="translate(315,343)"/>
<path d="M0 0 C1.32 0.99 2.64 1.98 4 3 C-2.25678726 24.41498319 -22.43939278 42.08824615 -40.5625 53.75 C-41.24151367 54.19311523 -41.92052734 54.63623047 -42.62011719 55.09277344 C-47.47120306 58.09397207 -47.47120306 58.09397207 -50.21459961 57.60644531 C-50.80378174 57.40631836 -51.39296387 57.20619141 -52 57 C-52 55.68 -52 54.36 -52 53 C-49.78339861 51.45175145 -47.68550451 50.19905729 -45.3125 48.9375 C-24.76921087 37.28866531 -11.48082103 20.2648049 0 0 Z " fill="#FEFEFE" transform="translate(293,321)"/>
<path d="M0 0 C5.44713971 0.49672526 9.05470544 2.43786893 13.5625 5.3125 C14.25996338 5.75400391 14.95742676 6.19550781 15.67602539 6.65039062 C22.86233996 11.3436276 28.9973427 16.89542648 35 23 C35.83273437 23.83402344 36.66546875 24.66804688 37.5234375 25.52734375 C43.45276962 31.77034361 47.7042177 38.58443011 52 46 C52.86431641 47.34191406 52.86431641 47.34191406 53.74609375 48.7109375 C55 51 55 51 54.6875 53.8125 C54.460625 54.534375 54.23375 55.25625 54 56 C53.01 56.33 52.02 56.66 51 57 C50.45472656 55.97261719 49.90945313 54.94523437 49.34765625 53.88671875 C44.64355681 45.17659515 39.72686457 37.33347394 33 30 C32.56349121 29.5157959 32.12698242 29.0315918 31.67724609 28.53271484 C22.00401156 17.90409912 10.90113107 10.25164942 -2 4 C-1.34 2.68 -0.68 1.36 0 0 Z " fill="#FEFEFE" transform="translate(234,171)"/>
<path d="M0 0 C11.47056486 3.90801933 21.34292013 14.74946808 30 23 C31.24523437 24.14855469 31.24523437 24.14855469 32.515625 25.3203125 C37.87898736 30.42415732 42.48822596 35.96056427 47 41.8125 C47.56452881 42.54227051 48.12905762 43.27204102 48.71069336 44.02392578 C51.37430953 47.55024343 53.6575729 50.7294038 55 55 C54.34 55.66 53.68 56.32 53 57 C52.01 57 51.02 57 50 57 C48.37421968 54.94957557 46.93564299 52.92789555 45.5 50.75 C40.96658835 44.15495946 36.03381382 38.26518714 30.46386719 32.51513672 C28.9534642 30.95183436 27.46556661 29.36882867 25.9765625 27.78515625 C17.89685478 19.32675155 8.55040624 10.27520312 -2 5 C-1.125 1.125 -1.125 1.125 0 0 Z " fill="#FEFEFE" transform="translate(293,112)"/>
<path d="M0 0 C1.32 0.99 2.64 1.98 4 3 C-2.40099067 20.52350417 -18.88301121 36.66592438 -33.5 47.6875 C-34.22058594 48.24244141 -34.94117188 48.79738281 -35.68359375 49.36914062 C-39.9564853 52.61823809 -44.19035137 55.59818548 -49 58 C-51.4375 57.25 -51.4375 57.25 -53 56 C-53 55.01 -53 54.02 -53 53 C-50.92132217 51.48878605 -48.89156337 50.1781759 -46.6875 48.875 C-28.6359462 37.70619954 -15.64968149 23.50157258 -4 6 C-3.59394531 5.3925293 -3.18789063 4.78505859 -2.76953125 4.15917969 C-1.84447959 2.77403654 -0.92192037 1.38722923 0 0 Z " fill="#FEFEFE" transform="translate(308,336)"/>
<path d="M0 0 C1.32 0.66 2.64 1.32 4 2 C3.44214697 6.47115037 1.61561672 9.73423038 -0.8125 13.4375 C-1.20775879 14.04368164 -1.60301758 14.64986328 -2.01025391 15.27441406 C-11.84187496 29.9669098 -24.218593 42.30123627 -39 52 C-40.10214844 52.77923828 -40.10214844 52.77923828 -41.2265625 53.57421875 C-46.30232193 57.04360488 -46.30232193 57.04360488 -50 56.8125 C-50.66 56.544375 -51.32 56.27625 -52 56 C-52.495 54.515 -52.495 54.515 -53 53 C-51.60201172 52.21689453 -51.60201172 52.21689453 -50.17578125 51.41796875 C-40.91212828 46.11466808 -32.87082717 40.19828653 -25 33 C-24.18917969 32.27167969 -23.37835938 31.54335938 -22.54296875 30.79296875 C-13.26725972 22.0370893 -6.25850309 11.04142414 0 0 Z " fill="#FEFEFE" transform="translate(300,329)"/>
<path d="M0 0 C1.32 0.99 2.64 1.98 4 3 C0.63715819 16.00298834 -7.7970302 26.51411793 -17 36 C-17.59941406 36.67289062 -18.19882812 37.34578125 -18.81640625 38.0390625 C-25.88911717 45.70753093 -35.08069761 51.42651894 -44.21875 56.359375 C-44.84716797 56.69936523 -45.47558594 57.03935547 -46.12304688 57.38964844 C-48.43818023 58.14248837 -49.72964489 57.77564181 -52 57 C-52 55.68 -52 54.36 -52 53 C-50.54980469 52.27296875 -50.54980469 52.27296875 -49.0703125 51.53125 C-40.9775763 47.39579616 -33.87700643 43.00820312 -27 37 C-26.31679687 36.45988281 -25.63359375 35.91976562 -24.9296875 35.36328125 C-13.61755369 26.20267093 -6.34132979 12.87251976 0 0 Z " fill="#FEFEFE" transform="translate(278,306)"/>
<path d="M0 0 C4.91990056 1.39171499 8.91958819 3.59753146 13.125 6.4375 C13.77662109 6.87489502 14.42824219 7.31229004 15.09960938 7.76293945 C21.64231473 12.26543779 27.32754983 17.46548175 33 23 C33.64195312 23.58007812 34.28390625 24.16015625 34.9453125 24.7578125 C42.28146148 31.54801551 52.17002624 43.337661 55 53 C54.109375 55.2421875 54.109375 55.2421875 53 57 C52.01 57 51.02 57 50 57 C49.52691406 56.11699219 49.05382812 55.23398438 48.56640625 54.32421875 C44.09819923 46.1530967 39.13667103 39.04794361 33 32 C32.49984375 31.36707031 31.9996875 30.73414063 31.484375 30.08203125 C22.46662901 18.75802264 9.26935501 11.30646984 -3 4 C-2.01 2.68 -1.02 1.36 0 0 Z " fill="#FEFEFE" transform="translate(242,163)"/>
<path d="M0 0 C16.49594535 2.20534029 35.39461494 25.31746619 45.04858398 37.77441406 C46.37453134 39.50984171 47.69034877 41.25225031 49 43 C49.68320312 43.91136719 50.36640625 44.82273438 51.0703125 45.76171875 C55.05034514 51.36153211 55.05034514 51.36153211 54.828125 54.1796875 C54.55484375 54.78039062 54.2815625 55.38109375 54 56 C53.01 56.33 52.02 56.66 51 57 C50.45472656 56.18917969 49.90945313 55.37835938 49.34765625 54.54296875 C35.69372097 34.40961499 19.30874085 16.22900866 -2 4 C-1.34 2.68 -0.68 1.36 0 0 Z " fill="#FEFEFE" transform="translate(278,127)"/>
<path d="M0 0 C1.32 0.66 2.64 1.32 4 2 C1.11525138 20.34183451 -27.37801324 42.02064945 -41.1875 52.4375 C-41.81116455 52.91662842 -42.4348291 53.39575684 -43.07739258 53.8894043 C-47.42141695 57.05124327 -47.42141695 57.05124327 -50.42578125 56.78515625 C-50.94527344 56.52605469 -51.46476562 56.26695312 -52 56 C-52 54.68 -52 53.36 -52 52 C-50.05078125 50.24609375 -50.05078125 50.24609375 -47.3125 48.4375 C-31.15421776 37.23663683 -17.7982565 23.66789042 -6 8 C-5.33226562 7.11957031 -4.66453125 6.23914063 -3.9765625 5.33203125 C-2.64173737 3.56166458 -1.31888329 1.78227471 0 0 Z " fill="#FEFEFE" transform="translate(351,380)"/>
<path d="M0 0 C3.875 1.75 3.875 1.75 5 4 C-7.10883589 23.25617168 -27.52537116 50.8151284 -50 58 C-50.99 56.68 -51.98 55.36 -53 54 C-52.00742187 53.27296875 -51.01484375 52.5459375 -49.9921875 51.796875 C-30.77501189 37.62093369 -10.93232869 21.86465738 0 0 Z " fill="#FEFEFE" transform="translate(329,358)"/>
<path d="M0 0 C3.875 1.75 3.875 1.75 5 4 C3.77009996 6.58671852 2.48771059 9.02301615 1.0625 11.5 C0.64572998 12.22687012 0.22895996 12.95374023 -0.20043945 13.70263672 C-3.65321079 19.60760446 -7.37464693 24.9415035 -12 30 C-12.4856543 30.53334961 -12.97130859 31.06669922 -13.47167969 31.61621094 C-23.94232205 42.97365906 -35.43910357 52.38000489 -50 58 C-51.5 56.625 -51.5 56.625 -53 55 C-53 54.34 -53 53.68 -53 53 C-52.07960937 52.55011719 -51.15921875 52.10023438 -50.2109375 51.63671875 C-27.5157104 40.23469469 -10.65074106 23.15378491 0 0 Z " fill="#FEFEFE" transform="translate(285,314)"/>
<path d="M0 0 C9.4897581 3.43982124 17.41110407 10.03230557 24.69921875 16.85546875 C26.76437744 18.78037897 28.88735149 20.57739206 31.0625 22.375 C38.30194189 28.71495212 43.86925494 36.68838719 49.5 44.4375 C49.9336084 45.02861572 50.3672168 45.61973145 50.81396484 46.22875977 C52.84417787 49.07211667 54.51725578 51.49148399 55 55 C53.68 55.99 52.36 56.98 51 58 C50.5153125 57.24976563 50.030625 56.49953125 49.53125 55.7265625 C36.75504492 36.21828012 19.84598808 14.84683699 -2 5 C-1.125 1.125 -1.125 1.125 0 0 Z " fill="#FEFEFE" transform="translate(264,141)"/>
<path d="M0 0 C19.24159532 3.42473359 38.99858402 29.13951848 49.8125 44.0625 C50.34705811 44.78920898 50.88161621 45.51591797 51.43237305 46.26464844 C52.15614136 47.2957373 52.15614136 47.2957373 52.89453125 48.34765625 C53.32612549 48.95617432 53.75771973 49.56469238 54.20239258 50.19165039 C55.22166859 52.50257094 54.83135099 53.66791105 54 56 C52.68 56 51.36 56 50 56 C47.95703125 53.54296875 47.95703125 53.54296875 45.8125 50.1875 C45.01657254 48.98202242 44.21701872 47.77893224 43.4140625 46.578125 C43.0109082 45.97291016 42.60775391 45.36769531 42.19238281 44.74414062 C30.69733352 27.92992437 15.05939438 14.84395612 -2 4 C-1.34 2.68 -0.68 1.36 0 0 Z " fill="#FEFEFE" transform="translate(271,134)"/>
<path d="M0 0 C4.76917885 0.52488116 8.18230096 2.73748234 12.0625 5.375 C12.72008301 5.81835693 13.37766602 6.26171387 14.05517578 6.71850586 C20.61004 11.24667264 26.31292662 16.44441964 32 22 C32.78890625 22.72703125 33.5778125 23.4540625 34.390625 24.203125 C42.76070147 32.10494545 49.65400388 41.81421063 55 52 C54.75 54.4375 54.75 54.4375 54 56 C52.68 56 51.36 56 50 56 C48.140625 53.5078125 48.140625 53.5078125 46.25 50.125 C42.66075351 43.94038747 38.65346352 38.4453531 34 33 C33.33613281 32.19046875 32.67226563 31.3809375 31.98828125 30.546875 C22.4921859 19.38325829 10.59174192 11.29986367 -2 4 C-1.34 2.68 -0.68 1.36 0 0 Z " fill="#FEFEFE" transform="translate(249,156)"/>
<path d="M0 0 C10.66214257 4.85328659 19.64492694 13.99893372 28 22 C28.55445801 22.52190918 29.10891602 23.04381836 29.68017578 23.58154297 C52.31812449 44.95437346 52.31812449 44.95437346 56 56 C54.35 56.66 52.7 57.32 51 58 C50.41734375 57.22398437 49.8346875 56.44796875 49.234375 55.6484375 C34.19632292 35.77394881 17.82078818 20.09405014 -2 5 C-1.34 3.35 -0.68 1.7 0 0 Z " fill="#FEFEFE" transform="translate(307,97)"/>
<path d="M0 0 C11.10686238 5.02952259 20.20848059 12.65797181 29 21 C29.4758252 21.44327637 29.95165039 21.88655273 30.44189453 22.34326172 C40.52589966 31.77710957 49.38973639 42.24940088 55 55 C53.625 56.5 53.625 56.5 52 58 C51.34 58 50.68 58 50 58 C48.91044742 56.27059936 47.90519732 54.48792031 46.9375 52.6875 C43.24034888 46.17347184 38.90605198 40.63780211 34 35 C33.30132812 34.16726562 32.60265625 33.33453125 31.8828125 32.4765625 C22.10655331 21.12464249 10.42772128 11.71386064 -3 5 C-1.125 1.125 -1.125 1.125 0 0 Z " fill="#FEFEFE" transform="translate(257,148)"/>
<path d="M0 0 C1.32 0.66 2.64 1.32 4 2 C0.67459517 11.55836258 -7.24408886 19.49554182 -14.01171875 26.82421875 C-15.60706821 28.57001374 -17.09935732 30.33288102 -18.5625 32.1875 C-21.7428996 35.85719184 -25.28509354 38.8838778 -29 42 C-29.969375 42.82242188 -30.93875 43.64484375 -31.9375 44.4921875 C-34.93415927 47.02513978 -37.95944197 49.51987495 -41 52 C-41.72058594 52.58910156 -42.44117188 53.17820312 -43.18359375 53.78515625 C-45 55.1875 -45 55.1875 -48 57 C-50.1875 56.61328125 -50.1875 56.61328125 -52 56 C-52 54.68 -52 53.36 -52 52 C-49.8671875 50.0625 -49.8671875 50.0625 -46.875 48 C-31.95390554 37.38168036 -19.40358742 25.18222957 -8.28222656 10.67138672 C-6.47232646 8.31217574 -4.64187796 5.96912196 -2.8125 3.625 C-1.87462181 2.41696018 -0.93694924 1.20876045 0 0 Z " fill="#FEFEFE" transform="translate(344,373)"/>
<path d="M0 0 C4.09190691 0.57050625 6.85139048 2.89012093 10 5.375 C10.57032959 5.82053223 11.14065918 6.26606445 11.72827148 6.72509766 C17.23650053 11.08695173 22.44297756 15.73461517 27.52050781 20.58789062 C28.5016484 21.5243456 29.48795247 22.45542231 30.47949219 23.38085938 C36.99398264 29.47021169 42.74097689 35.93387467 48.1875 43 C48.75267334 43.73041504 49.31784668 44.46083008 49.90014648 45.21337891 C50.68240601 46.25244385 50.68240601 46.25244385 51.48046875 47.3125 C51.94348389 47.92738281 52.40649902 48.54226562 52.88354492 49.17578125 C54.06860428 51.11209516 54.57065775 52.78198671 55 55 C53.68 55.66 52.36 56.32 51 57 C50.31035156 56.10539062 49.62070312 55.21078125 48.91015625 54.2890625 C43.8279047 47.73524993 38.67494349 41.34194578 33.05078125 35.23828125 C31.12555454 33.13703381 29.27921697 30.98680694 27.4375 28.8125 C21.30702056 21.80583702 13.85198745 16.22017764 6.5 10.5625 C5.67757813 9.92634766 4.85515625 9.29019531 4.0078125 8.63476562 C2.00693952 7.08757896 0.00432925 5.54270476 -2 4 C-1.34 2.68 -0.68 1.36 0 0 Z " fill="#FEFEFE" transform="translate(300,105)"/>
<path d="M0 0 C1.32 0.99 2.64 1.98 4 3 C2.53850329 7.32059958 0.23393448 10.64326804 -2.5625 14.1875 C-3.01012695 14.75992432 -3.45775391 15.33234863 -3.91894531 15.92211914 C-8.05699138 21.16193826 -12.40064726 26.15820076 -17 31 C-17.4945166 31.52706543 -17.9890332 32.05413086 -18.49853516 32.59716797 C-25.10472767 39.59889302 -31.92848943 46.01435046 -39.625 51.8125 C-40.29990479 52.32216309 -40.97480957 52.83182617 -41.67016602 53.35693359 C-47.41461767 57.558349 -47.41461767 57.558349 -51 58 C-51.66 57.34 -52.32 56.68 -53 56 C-53 55.01 -53 54.02 -53 53 C-50.68359375 51.1953125 -50.68359375 51.1953125 -47.4375 49.125 C-27.80783404 36.10574049 -13.31840746 19.2027574 0 0 Z " fill="#FEFEFE" transform="translate(337,365)"/>
<path d="M0 0 C0.33 0 0.66 0 1 0 C1.25541913 4.80187971 0.98448476 8.59178625 -1.82421875 12.609375 C-4.14802198 15.15017174 -6.56538356 17.56538356 -9 20 C-10.11444562 21.26279936 -11.22056802 22.53297102 -12.3203125 23.80859375 C-36.42011611 51.58155329 -36.42011611 51.58155329 -49 55 C-51.875 55.125 -51.875 55.125 -54 55 C-51.04252764 51.95586179 -48.04063624 49.15351388 -44.75073242 46.46264648 C-37.15329868 40.21150675 -30.15021866 33.37559465 -23.1875 26.4375 C-22.70017395 25.95516907 -22.2128479 25.47283813 -21.71075439 24.97589111 C-14.34618438 17.67329939 -7.42976275 10.07882192 -1.31323242 1.68530273 C-0.66318237 0.85107788 -0.66318237 0.85107788 0 0 Z " fill="#FEFEFE" transform="translate(430,458)"/>
<path d="M0 0 C4.2815585 -0.60178587 8.09394934 -0.34235784 11.71875 2.21044922 C15.49920248 5.40331492 18.97052432 8.91451043 22.43896484 12.43945312 C24.35497556 14.35486453 26.37028642 16.12489297 28.4375 17.875 C34.13545214 22.80918408 39.28657724 28.15962622 44.16015625 33.90625 C45.44786039 35.37166278 46.79550689 36.78554527 48.18359375 38.15625 C52.96933886 43.00171029 54.89487494 46.24580223 55.0625 53.12890625 C55.041875 53.74636719 55.02125 54.36382812 55 55 C51.60550558 51.64778576 48.327901 48.2229706 45.125 44.6875 C44.24457031 43.71683594 43.36414063 42.74617188 42.45703125 41.74609375 C40.54133459 39.60502101 38.66870221 37.44194938 36.8125 35.25 C27.77265099 24.8851613 17.81332794 15.47722436 7 7 C4.62369358 5.03985933 2.30291845 3.04703862 0 1 C0 0.67 0 0.34 0 0 Z " fill="#FEFEFE" transform="translate(376,29)"/>
<path d="M0 0 C3.34768735 1.73822228 5.43753452 3.09516422 7.4375 6.3125 C8.18847343 9.90048416 7.88880825 12.44476699 7 16 C5.17660948 18.70567626 3.92542564 20.53728718 1 22 C-5.10397596 22.50866466 -8.10769166 22.05703618 -13 18 C-14.74348951 14.51302098 -14.58082725 10.80409937 -14 7 C-10.83699299 1.08920699 -6.51331125 -0.63855993 0 0 Z M-7.1875 6.6875 C-9.18485834 8.85829303 -9.18485834 8.85829303 -9.4375 11.5625 C-9.14003166 13.99444204 -9.14003166 13.99444204 -7.9375 15.875 C-4.88430685 17.64782183 -2.33588292 16.69235306 1 16 C1.66 14.02 2.32 12.04 3 10 C0.68767578 7.43750025 0.68767578 7.43750025 -2 5 C-5.06456796 4.69459827 -5.06456796 4.69459827 -7.1875 6.6875 Z " fill="#FEFEFE" transform="translate(192,260)"/>
<path d="M0 0 C4.53309889 1.44159211 7.59410077 3.98330832 11 7.1875 C11.52819336 7.67710205 12.05638672 8.1667041 12.60058594 8.67114258 C16.28348119 12.15203938 19.31340849 15.68226364 22 20 C21.67 20.66 21.34 21.32 21 22 C18.00611124 19.03075698 15.01546454 16.05829855 12.02783203 13.08276367 C11.01017212 12.0701449 9.99161821 11.05842377 8.97216797 10.04760742 C7.51035593 8.5978706 6.05174758 7.14497792 4.59375 5.69140625 C3.71396484 4.81685791 2.83417969 3.94230957 1.92773438 3.04125977 C0 1 0 1 0 0 Z " fill="#FEFEFE" transform="translate(401,37)"/>
<path d="M0 0 C0.66 0.33 1.32 0.66 2 1 C-3.25504262 8.16329832 -8.83670168 13.74495738 -16 19 C-16 16 -16 16 -13.76953125 13.73046875 C-12.79371094 12.89128906 -11.81789063 12.05210937 -10.8125 11.1875 C-6.82347335 7.69797885 -3.21952414 4.2186868 0 0 Z " fill="#FEFEFE" transform="translate(420,485)"/>
</svg>
