<svg width="1200" height="630" viewBox="0 0 1200 630" fill="none" xmlns="http://www.w3.org/2000/svg">
  <rect width="1200" height="630" fill="#010103"/>
  <rect width="1200" height="630" fill="url(#gridFade)"/>
  <rect x="54" y="54" width="1092" height="522" rx="28" fill="url(#panelBg)" stroke="rgba(255,255,255,0.08)"/>

  <g opacity="0.28">
    <path d="M0 126H1200" stroke="#00F7FF" stroke-opacity="0.08"/>
    <path d="M0 252H1200" stroke="#00F7FF" stroke-opacity="0.08"/>
    <path d="M0 378H1200" stroke="#00F7FF" stroke-opacity="0.08"/>
    <path d="M0 504H1200" stroke="#00F7FF" stroke-opacity="0.08"/>
    <path d="M120 0V630" stroke="#00F7FF" stroke-opacity="0.08"/>
    <path d="M240 0V630" stroke="#00F7FF" stroke-opacity="0.08"/>
    <path d="M360 0V630" stroke="#00F7FF" stroke-opacity="0.08"/>
    <path d="M480 0V630" stroke="#00F7FF" stroke-opacity="0.08"/>
    <path d="M600 0V630" stroke="#00F7FF" stroke-opacity="0.08"/>
    <path d="M720 0V630" stroke="#00F7FF" stroke-opacity="0.08"/>
    <path d="M840 0V630" stroke="#00F7FF" stroke-opacity="0.08"/>
    <path d="M960 0V630" stroke="#00F7FF" stroke-opacity="0.08"/>
    <path d="M1080 0V630" stroke="#00F7FF" stroke-opacity="0.08"/>
  </g>

  <circle cx="867" cy="235" r="118" fill="url(#coreGlow)" opacity="0.9"/>
  <circle cx="867" cy="235" r="76" fill="#03161A" stroke="#00F7FF" stroke-opacity="0.35"/>
  <circle cx="867" cy="235" r="40" fill="#00F7FF" fill-opacity="0.18" stroke="#00F7FF" stroke-opacity="0.65"/>

  <path d="M745 235H807" stroke="#00F7FF" stroke-opacity="0.65"/>
  <path d="M927 235H989" stroke="#00F7FF" stroke-opacity="0.65"/>
  <path d="M867 113V171" stroke="#00F7FF" stroke-opacity="0.4"/>
  <path d="M867 299V357" stroke="#00F7FF" stroke-opacity="0.4"/>

  <rect x="112" y="120" width="190" height="32" rx="16" fill="#00F7FF" fill-opacity="0.08" stroke="#00F7FF" stroke-opacity="0.2"/>
  <text x="136" y="141" fill="#6EF6FF" font-family="Arial, Helvetica, sans-serif" font-size="14" letter-spacing="4.2">KIIT ENGINEERING GUILD</text>

  <text x="112" y="258" fill="white" font-family="Arial, Helvetica, sans-serif" font-size="88" font-weight="700" letter-spacing="2">K-1000</text>
  <text x="112" y="326" fill="#73F3FF" font-family="Arial, Helvetica, sans-serif" font-size="32" font-weight="700" letter-spacing="8">TRAIN • TRANSFORM • TRANSCEND</text>

  <text x="112" y="414" fill="rgba(255,255,255,0.62)" font-family="Arial, Helvetica, sans-serif" font-size="28">
    Research, innovation, technical growth, and high-impact
  </text>
  <text x="112" y="452" fill="rgba(255,255,255,0.62)" font-family="Arial, Helvetica, sans-serif" font-size="28">
    student engineering culture at KIIT University.
  </text>

  <rect x="112" y="500" width="210" height="28" rx="14" fill="#FFFFFF" fill-opacity="0.03" stroke="rgba(255,255,255,0.08)"/>
  <text x="134" y="519" fill="rgba(255,255,255,0.5)" font-family="Arial, Helvetica, sans-serif" font-size="13" letter-spacing="3.25">OFFICIAL PROGRAM SITE</text>

  <defs>
    <radialGradient id="coreGlow" cx="0" cy="0" r="1" gradientUnits="userSpaceOnUse" gradientTransform="translate(867 235) rotate(90) scale(118)">
      <stop stop-color="#00F7FF" stop-opacity="0.28"/>
      <stop offset="1" stop-color="#00F7FF" stop-opacity="0"/>
    </radialGradient>
    <linearGradient id="panelBg" x1="600" y1="54" x2="600" y2="576" gradientUnits="userSpaceOnUse">
      <stop stop-color="#05070A"/>
      <stop offset="1" stop-color="#020304"/>
    </linearGradient>
    <linearGradient id="gridFade" x1="600" y1="0" x2="600" y2="630" gradientUnits="userSpaceOnUse">
      <stop stop-color="#00F7FF" stop-opacity="0.03"/>
      <stop offset="1" stop-color="#00F7FF" stop-opacity="0"/>
    </linearGradient>
  </defs>
</svg>
